<?xml version="1.0" encoding="utf-8"?>
<!-- Generator: Adobe Illustrator 25.2.0, SVG Export Plug-In . SVG Version: 6.00 Build 0)  -->
<svg version="1.1" id="Layer_1" xmlns="http://www.w3.org/2000/svg" xmlns:xlink="http://www.w3.org/1999/xlink" x="0px" y="0px"
	 viewBox="0 0 1000 1000" style="enable-background:new 0 0 1000 1000;" xml:space="preserve">
<style type="text/css">
	.st0{display:none;}
	.st1{display:inline;}
	.st2{opacity:0.61;}
	.st3{fill:#606060;}
	.st4{fill:#F84D10;}
	.st5{fill:#444444;}
	.st6{fill:#FFFFFF;}
	.st7{display:inline;opacity:0.61;}
	.st8{fill:#0E2958;}
</style>
<g id="watermark_1_" class="st0">
	<g class="st1">
		<g id="watermark" class="st2">
			<g>
				<g>
					<g>
						<g>
							<polygon class="st3" points="421.11,924.53 409.01,952.49 402.62,952.49 390.55,924.53 397.54,924.53 406.05,944.5 
								414.68,924.53 							"/>
						</g>
						<g>
							<path class="st3" d="M442.32,943.18h-16.26c0.6,2.68,2.88,4.31,6.15,4.31c2.28,0,3.91-0.68,5.39-2.08l3.32,3.59
								c-2,2.28-4.99,3.48-8.87,3.48c-7.43,0-12.27-4.67-12.27-11.07c0-6.43,4.91-11.07,11.47-11.07c6.31,0,11.19,4.23,11.19,11.15
								C442.44,941.99,442.36,942.67,442.32,943.18 M425.98,939.55h10.59c-0.44-2.72-2.48-4.47-5.27-4.47
								C428.46,935.08,426.42,936.79,425.98,939.55"/>
						</g>
						<g>
							<path class="st3" d="M445,941.43c0-6.47,4.99-11.07,11.99-11.07c4.51,0,8.07,1.96,9.63,5.47l-4.83,2.6
								c-1.16-2.04-2.88-2.96-4.83-2.96c-3.16,0-5.63,2.2-5.63,5.95c0,3.76,2.48,5.95,5.63,5.95c1.96,0,3.68-0.88,4.83-2.96
								l4.83,2.64c-1.56,3.44-5.11,5.43-9.63,5.43C449.99,952.49,445,947.9,445,941.43"/>
						</g>
						<g>
							<path class="st3" d="M484.39,951.14c-1.28,0.92-3.16,1.36-5.07,1.36c-5.07,0-8.03-2.6-8.03-7.71v-8.83h-3.32v-4.79h3.32
								v-5.23h6.23v5.23h5.35v4.79h-5.35v8.75c0,1.84,1,2.84,2.68,2.84c0.92,0,1.84-0.28,2.52-0.8L484.39,951.14z"/>
						</g>
					</g>
					<g>
						<path class="st3" d="M527.16,930.68v5.75c-0.52-0.04-0.92-0.08-1.4-0.08c-3.44,0-5.71,1.88-5.71,5.99v10.15h-6.23V931h5.95
							v2.84C521.28,931.76,523.84,930.68,527.16,930.68"/>
					</g>
					<g>
						<path class="st3" d="M528.95,949.26l2.2-4.87c2.36,1.72,5.87,2.92,9.23,2.92c3.84,0,5.39-1.28,5.39-3
							c0-5.23-16.26-1.64-16.26-12.03c0-4.75,3.84-8.71,11.79-8.71c3.52,0,7.11,0.84,9.71,2.48l-2,4.91c-2.6-1.48-5.27-2.2-7.75-2.2
							c-3.83,0-5.31,1.44-5.31,3.2c0,5.15,16.26,1.6,16.26,11.87c0,4.67-3.87,8.67-11.86,8.67
							C535.91,952.49,531.43,951.18,528.95,949.26"/>
					</g>
					<g>
						<path class="st3" d="M577.13,943.18h-16.26c0.6,2.68,2.88,4.31,6.15,4.31c2.28,0,3.92-0.68,5.39-2.08l3.32,3.59
							c-2,2.28-4.99,3.48-8.87,3.48c-7.43,0-12.26-4.67-12.26-11.07c0-6.43,4.91-11.07,11.47-11.07c6.31,0,11.19,4.23,11.19,11.15
							C577.25,941.99,577.17,942.67,577.13,943.18 M560.79,939.55h10.59c-0.44-2.72-2.48-4.47-5.27-4.47
							C563.27,935.08,561.23,936.79,560.79,939.55"/>
					</g>
					<g>
						<path class="st3" d="M602.34,943.18h-16.26c0.6,2.68,2.88,4.31,6.15,4.31c2.28,0,3.92-0.68,5.39-2.08l3.32,3.59
							c-2,2.28-4.99,3.48-8.87,3.48c-7.43,0-12.26-4.67-12.26-11.07c0-6.43,4.91-11.07,11.47-11.07c6.31,0,11.19,4.23,11.19,11.15
							C602.46,941.99,602.38,942.67,602.34,943.18 M586,939.55h10.59c-0.44-2.72-2.48-4.47-5.27-4.47
							C588.47,935.08,586.44,936.79,586,939.55"/>
					</g>
					<g>
						<polygon class="st3" points="615.84,944.06 612.84,947.02 612.84,952.49 606.61,952.49 606.61,922.85 612.84,922.85 
							612.84,939.63 621.95,931 629.38,931 620.43,940.11 630.18,952.49 622.63,952.49 						"/>
					</g>
					<g>
						<path class="st3" d="M514.37,955.42L514.37,955.42l-6.23-6.23c-0.95,1.11-2.08,2.05-3.34,2.8c-0.2,0.15-0.41,0.3-0.62,0.43
							l6.59,6.59c0.99,0.99,2.6,0.99,3.59,0C515.36,958.02,515.36,956.41,514.37,955.42"/>
					</g>
					<g>
						<path class="st4" d="M499.97,929.04c0.48-0.38,1.08-0.61,1.74-0.61c0.09,0,0.18,0,0.27,0.01c-0.47-0.34-1.04-0.54-1.66-0.54
							c-0.86,0-1.62,0.39-2.14,1c-0.11,0-0.22,0.01-0.33,0.02c0.09-0.17,0.14-0.35,0.14-0.55c0-0.51-0.31-0.94-0.75-1.13
							c0.19,0.28,0.3,0.61,0.3,0.97c0,0.27-0.07,0.52-0.18,0.74c-6.12,0.44-10.95,5.53-10.95,11.76c0,6.52,5.28,11.8,11.8,11.8
							c6.52,0,11.8-5.28,11.8-11.8C510,934.78,505.64,929.89,499.97,929.04 M495.61,932.11c0.95,0,1.84,0.24,2.61,0.67
							c0.81-0.53,1.78-0.84,2.83-0.84c1.55,0,2.93,0.68,3.88,1.76c-0.95-0.83-2.19-1.33-3.54-1.33c-0.98,0-1.89,0.26-2.69,0.72
							c-0.17,0.1-0.34,0.21-0.5,0.33c-0.14-0.1-0.29-0.2-0.44-0.29c-0.8-0.48-1.74-0.75-2.74-0.75c-0.65,0-1.28,0.12-1.86,0.33
							C493.89,932.33,494.73,932.11,495.61,932.11 M503.86,941.78c0.25,0.66,0.39,1.38,0.39,2.13c0,3.34-2.71,6.05-6.05,6.05
							c-3.34,0-6.05-2.71-6.05-6.05c0-0.75,0.14-1.47,0.39-2.13c-1.35-0.83-2.25-2.32-2.25-4.02c0-2.61,2.11-4.72,4.72-4.72
							c1.23,0,2.35,0.47,3.19,1.24c0.84-0.77,1.96-1.24,3.19-1.24c2.61,0,4.72,2.11,4.72,4.72
							C506.11,939.47,505.21,940.95,503.86,941.78"/>
					</g>
					<g>
						<path class="st5" d="M503.63,937.35c0,1.08-0.88,1.96-1.96,1.96c-1.08,0-1.96-0.88-1.96-1.96s0.88-1.96,1.96-1.96
							c0.22,0,0.43,0.04,0.63,0.1c-0.06,0.14-0.1,0.29-0.1,0.45c0,0.59,0.48,1.08,1.08,1.08c0.11,0,0.22-0.02,0.32-0.05
							C503.61,937.09,503.63,937.22,503.63,937.35"/>
					</g>
					<g>
						<path class="st5" d="M496.2,937.35c0,0.82-0.66,1.48-1.48,1.48c-0.82,0-1.48-0.66-1.48-1.48s0.66-1.48,1.48-1.48
							c0.17,0,0.32,0.03,0.47,0.08c-0.05,0.1-0.07,0.22-0.07,0.34c0,0.45,0.36,0.81,0.81,0.81c0.08,0,0.16-0.01,0.24-0.04
							C496.19,937.15,496.2,937.25,496.2,937.35"/>
					</g>
					<g>
						<g>
							<g>
								<rect x="484.56" y="939.02" class="st3" width="1.34" height="1.34"/>
							</g>
							<g>
								<rect x="510.51" y="939.02" class="st3" width="1.34" height="1.34"/>
							</g>
							<g>
								<path class="st3" d="M511.33,939.57h-0.3c0-7.07-5.75-12.82-12.82-12.82c-7.07,0-12.82,5.75-12.82,12.82h-0.3
									c0-3.51,1.37-6.8,3.85-9.28c2.48-2.48,5.78-3.85,9.28-3.85c3.51,0,6.8,1.37,9.28,3.85
									C509.97,932.77,511.33,936.07,511.33,939.57"/>
							</g>
						</g>
						<g>
							<rect x="497.53" y="925.93" class="st3" width="1.34" height="1.34"/>
						</g>
						<g>
							<rect x="489.01" y="926.44" class="st3" width="18.4" height="0.3"/>
						</g>
						<g>
							<path class="st3" d="M489.49,926.66c0,0.24-0.19,0.43-0.43,0.43c-0.24,0-0.43-0.19-0.43-0.43s0.19-0.43,0.43-0.43
								C489.3,926.23,489.49,926.42,489.49,926.66"/>
						</g>
						<g>
							<path class="st3" d="M507.83,926.66c0,0.24-0.19,0.43-0.43,0.43c-0.24,0-0.43-0.19-0.43-0.43s0.19-0.43,0.43-0.43
								C507.64,926.23,507.83,926.42,507.83,926.66"/>
						</g>
					</g>
				</g>
				<g>
					<path class="st3" d="M640.11,951.17c0,3.39-5.15,3.39-5.15,0C634.96,947.78,640.11,947.78,640.11,951.17z"/>
				</g>
				<g>
					<g>
						<g>
							<path class="st3" d="M307.85,936.24l3.86,13.25l4.04-13.25h4.82l-6.15,17.72h-5.07l-1.82-5.22l-1.57-5.9l-1.57,5.9
								l-1.82,5.22h-5.07l-6.18-17.72h4.86l4.04,13.25l3.82-13.25H307.85z"/>
						</g>
						<g>
							<path class="st3" d="M340.45,936.24l3.86,13.25l4.04-13.25h4.82l-6.15,17.72h-5.07l-1.82-5.22l-1.57-5.9l-1.57,5.9
								l-1.82,5.22h-5.07l-6.18-17.72h4.86l4.04,13.25l3.82-13.25H340.45z"/>
						</g>
						<g>
							<path class="st3" d="M373.05,936.24l3.86,13.25l4.04-13.25h4.82l-6.15,17.72h-5.07l-1.82-5.22l-1.57-5.9l-1.57,5.9
								l-1.82,5.22h-5.07l-6.18-17.72h4.86l4.04,13.25l3.82-13.25H373.05z"/>
						</g>
					</g>
					<g>
						<path class="st3" d="M393.12,951.41c0,3.39-5.15,3.39-5.15,0C387.98,948.02,393.12,948.02,393.12,951.41z"/>
					</g>
					<g>
						<path class="st3" d="M658.3,951.17c-2.04,2-4.18,2.79-6.79,2.79c-5.11,0-9.36-3.07-9.36-9.32c0-6.25,4.25-9.33,9.36-9.33
							c2.5,0,4.43,0.72,6.36,2.61l-2.75,2.89c-1.04-0.93-2.32-1.39-3.53-1.39c-2.93,0-5.07,2.14-5.07,5.22c0,3.36,2.29,5.14,5,5.14
							c1.39,0,2.79-0.39,3.86-1.46L658.3,951.17z"/>
					</g>
					<g>
						<path class="st3" d="M678.1,944.78c0,5.07-3.46,9.18-9.18,9.18c-5.72,0-9.15-4.11-9.15-9.18c0-5.04,3.5-9.18,9.11-9.18
							S678.1,939.74,678.1,944.78z M664.13,944.78c0,2.68,1.61,5.18,4.79,5.18c3.18,0,4.79-2.5,4.79-5.18
							c0-2.64-1.86-5.22-4.79-5.22C665.77,939.56,664.13,942.13,664.13,944.78z"/>
					</g>
					<g>
						<path class="st3" d="M692.83,953.96v-9.43c0-2.32-1.22-4.43-3.61-4.43c-2.36,0-3.75,2.11-3.75,4.43v9.43h-4.36v-17.65h4.04
							l0.32,2.14c0.93-1.79,2.96-2.43,4.64-2.43c2.11,0,4.22,0.86,5.22,3.29c1.57-2.5,3.61-3.22,5.9-3.22c5,0,7.47,3.07,7.47,8.36
							v9.5h-4.36v-9.5c0-2.32-0.96-4.29-3.32-4.29c-2.36,0-3.82,2.04-3.82,4.36v9.43H692.83z"/>
					</g>
				</g>
			</g>
		</g>
		<g class="st2">
			<g>
				<g>
					<path class="st3" d="M708.97,859.49c-0.01-2.66-2.09-4.62-4.77-4.66c-2.01-0.03-1.81,0.26-1.82-1.89
						c-0.01-2.39-0.02-4.78,0.01-7.17c0.01-0.82-0.24-1.5-0.79-2.12c-5.1-5.81-10.18-11.63-15.28-17.44c-0.26-0.3-0.6-0.53-0.9-0.8
						c-13.53,0-27.06,0-40.58,0c-1.73,0.64-2.48,1.89-2.48,3.72c0.02,8.16,0.01,16.32,0.01,24.48c0,1.21-0.01,1.28-1.2,1.2
						c-3.26-0.22-5.48,2.15-5.44,5.43c0.1,7.57,0.03,15.14,0.03,22.71c0,3.44,1.89,5.32,5.33,5.33c1.27,0,1.27,0,1.27,1.31
						c0,4.83,0,9.66,0,14.49c0,2.59,1.26,3.85,3.85,3.85c17.45,0,34.89,0,52.34,0c2.54,0,3.82-1.27,3.82-3.8
						c0.01-4.91,0-9.82,0-14.73c0-1.11,0-1.11,1.13-1.12c0.59,0,1.18,0.02,1.76-0.13c2.17-0.53,3.68-2.27,3.69-4.5
						C709.01,875.6,709.01,867.54,708.97,859.49z M647.03,828.72c11.62,0,23.24,0,34.86,0c1.19,0,1.21,0.01,1.21,1.22
						c0,4.88,0,9.77,0,14.65c0,1.76,0.54,2.3,2.31,2.31c4.16,0,8.32,0,12.48,0c1,0,1.04,0.05,1.05,1.05c0.01,1.93,0.01,3.86,0,5.8
						c0,1.04-0.05,1.09-1.1,1.09c-8.48,0-16.96,0-25.44,0c-8.45,0-16.9,0-25.36,0c-1.2,0-1.2,0-1.2-1.22c0-7.89,0-15.78,0-23.67
						C645.84,828.72,645.84,828.72,647.03,828.72z M697.73,903.65c-8.45,0-16.91,0-25.36,0c-8.43,0-16.85,0-25.28,0
						c-1.25,0-1.25,0-1.25-1.26c0-4.35,0-8.7,0-13.04c0-1.01,0.05-1.06,1.04-1.06c16.99,0,33.98,0,50.97,0
						c1.04,0,1.09,0.04,1.09,1.09c0,4.35,0,8.7,0,13.04C698.93,903.63,698.92,903.64,697.73,903.65z"/>
				</g>
				<g>
					<g>
						<rect x="668.55" y="828.48" class="st3" width="3.82" height="2.29"/>
					</g>
					<g>
						<rect x="664.72" y="830.77" class="st3" width="3.82" height="2.29"/>
					</g>
					<g>
						<rect x="668.55" y="833.07" class="st3" width="3.82" height="2.29"/>
					</g>
					<g>
						<rect x="664.72" y="835.36" class="st3" width="3.82" height="2.29"/>
					</g>
					<g>
						<rect x="668.55" y="837.66" class="st3" width="3.82" height="2.29"/>
					</g>
					<g>
						<rect x="664.72" y="839.95" class="st3" width="3.82" height="2.29"/>
					</g>
					<g>
						<rect x="668.55" y="842.25" class="st3" width="3.82" height="2.29"/>
					</g>
					<g>
						<rect x="664.72" y="844.54" class="st3" width="3.82" height="2.29"/>
					</g>
					<g>
						<rect x="668.55" y="846.84" class="st3" width="3.82" height="2.29"/>
					</g>
					<g>
						<rect x="664.72" y="849.13" class="st3" width="3.82" height="2.29"/>
					</g>
					<g>
						<rect x="668.55" y="851.43" class="st3" width="3.82" height="2.29"/>
					</g>
					<g>
						<rect x="664.72" y="853.72" class="st3" width="3.82" height="2.29"/>
					</g>
				</g>
			</g>
			<g>
				<path class="st3" d="M364.23,859.49c-0.01-2.66-2.09-4.62-4.77-4.66c-2.01-0.03-1.81,0.26-1.82-1.89
					c-0.01-2.39-0.02-4.78,0.01-7.17c0.01-0.82-0.24-1.5-0.79-2.12c-5.1-5.81-10.18-11.63-15.28-17.44c-0.26-0.3-0.6-0.53-0.9-0.8
					c-13.53,0-27.06,0-40.58,0c-1.73,0.64-2.48,1.89-2.48,3.72c0.02,8.16,0.01,16.32,0.01,24.48c0,1.21-0.01,1.28-1.2,1.2
					c-3.26-0.22-5.48,2.15-5.44,5.43c0.1,7.57,0.03,15.14,0.03,22.71c0,3.44,1.89,5.32,5.33,5.33c1.27,0,1.27,0,1.27,1.31
					c0,4.83,0,9.66,0,14.49c0,2.59,1.26,3.85,3.85,3.85c17.45,0,34.89,0,52.34,0c2.54,0,3.82-1.27,3.82-3.8
					c0.01-4.91,0-9.82,0-14.73c0-1.11,0-1.11,1.13-1.12c0.59,0,1.18,0.02,1.76-0.13c2.17-0.53,3.68-2.27,3.69-4.5
					C364.26,875.6,364.27,867.54,364.23,859.49z M302.29,828.72c11.62,0,23.24,0,34.86,0c1.19,0,1.21,0.01,1.21,1.22
					c0,4.88,0,9.77,0,14.65c0,1.76,0.54,2.3,2.31,2.31c4.16,0,8.32,0,12.48,0c1,0,1.04,0.05,1.05,1.05c0.01,1.93,0.01,3.86,0,5.8
					c0,1.04-0.05,1.09-1.1,1.09c-8.48,0-16.96,0-25.44,0c-8.45,0-16.9,0-25.36,0c-1.2,0-1.2,0-1.2-1.22c0-7.89,0-15.78,0-23.67
					C301.09,828.72,301.1,828.72,302.29,828.72z M352.99,903.65c-8.45,0-16.91,0-25.36,0c-8.43,0-16.85,0-25.28,0
					c-1.25,0-1.25,0-1.25-1.26c0-4.35,0-8.7,0-13.04c0-1.01,0.05-1.06,1.04-1.06c16.99,0,33.98,0,50.97,0
					c1.04,0,1.09,0.04,1.09,1.09c0,4.35,0,8.7,0,13.04C354.19,903.63,354.18,903.64,352.99,903.65z"/>
			</g>
			<g>
				<path class="st6" d="M303.58,879.89V862.7h6.05c0.82,0,1.58,0.13,2.29,0.4c0.71,0.26,1.33,0.64,1.86,1.12
					c0.53,0.48,0.94,1.05,1.25,1.72c0.3,0.66,0.46,1.4,0.46,2.2c0,0.82-0.15,1.56-0.46,2.22s-0.72,1.24-1.25,1.72
					c-0.53,0.48-1.15,0.85-1.86,1.12c-0.71,0.26-1.48,0.4-2.29,0.4h-2.81v6.32H303.58z M309.68,870.5c0.85,0,1.49-0.24,1.92-0.72
					c0.43-0.48,0.65-1.03,0.65-1.66c0-0.3-0.05-0.6-0.16-0.89c-0.1-0.29-0.26-0.54-0.48-0.76c-0.22-0.22-0.48-0.39-0.8-0.52
					c-0.32-0.13-0.7-0.19-1.13-0.19h-2.86v4.73H309.68z"/>
				<path class="st6" d="M317.8,862.7h3.77l6.92,11.53h0.19l-0.19-3.31v-8.21h3.22v17.19h-3.41l-7.3-12.17h-0.19l0.19,3.31v8.86
					h-3.19V862.7z"/>
				<path class="st6" d="M343.08,870.45h8.43c0.05,0.19,0.09,0.43,0.12,0.7c0.03,0.27,0.05,0.54,0.05,0.82c0,1.1-0.17,2.14-0.5,3.12
					c-0.34,0.98-0.87,1.85-1.59,2.62c-0.77,0.82-1.69,1.45-2.76,1.9c-1.07,0.45-2.3,0.67-3.67,0.67c-1.25,0-2.43-0.22-3.53-0.67
					c-1.1-0.45-2.06-1.07-2.88-1.87c-0.82-0.8-1.46-1.75-1.95-2.85c-0.48-1.1-0.72-2.29-0.72-3.59c0-1.3,0.24-2.49,0.72-3.59
					s1.13-2.04,1.95-2.85c0.82-0.8,1.78-1.42,2.88-1.87c1.1-0.45,2.28-0.67,3.53-0.67c1.39,0,2.64,0.24,3.73,0.72
					c1.1,0.48,2.04,1.14,2.82,1.99l-2.23,2.18c-0.56-0.59-1.18-1.04-1.87-1.36s-1.51-0.47-2.47-0.47c-0.79,0-1.53,0.14-2.23,0.42
					c-0.71,0.28-1.32,0.68-1.85,1.19c-0.53,0.51-0.95,1.13-1.26,1.86c-0.31,0.73-0.47,1.54-0.47,2.44c0,0.9,0.16,1.71,0.47,2.44
					c0.31,0.73,0.74,1.35,1.27,1.86c0.54,0.51,1.16,0.91,1.86,1.19c0.7,0.28,1.46,0.42,2.26,0.42c0.91,0,1.68-0.13,2.32-0.4
					c0.63-0.26,1.17-0.6,1.62-1.02c0.32-0.29,0.6-0.65,0.83-1.09s0.41-0.93,0.54-1.48h-5.4V870.45z"/>
			</g>
			<g>
				<path class="st3" d="M443.44,859.49c-0.01-2.66-2.09-4.62-4.77-4.66c-2.01-0.03-1.81,0.26-1.82-1.89
					c-0.01-2.39-0.02-4.78,0.01-7.17c0.01-0.82-0.24-1.5-0.79-2.12c-5.1-5.81-10.18-11.63-15.28-17.44c-0.26-0.3-0.6-0.53-0.9-0.8
					c-13.53,0-27.06,0-40.58,0c-1.73,0.64-2.48,1.89-2.48,3.72c0.02,8.16,0.01,16.32,0.01,24.48c0,1.21-0.01,1.28-1.2,1.2
					c-3.26-0.22-5.48,2.15-5.44,5.43c0.1,7.57,0.03,15.14,0.03,22.71c0,3.44,1.89,5.32,5.33,5.33c1.27,0,1.27,0,1.27,1.31
					c0,4.83,0,9.66,0,14.49c0,2.59,1.26,3.85,3.85,3.85c17.45,0,34.89,0,52.34,0c2.54,0,3.82-1.27,3.82-3.8
					c0.01-4.91,0-9.82,0-14.73c0-1.11,0-1.11,1.13-1.12c0.59,0,1.18,0.02,1.76-0.13c2.17-0.53,3.68-2.27,3.69-4.5
					C443.47,875.6,443.48,867.54,443.44,859.49z M381.5,828.72c11.62,0,23.24,0,34.86,0c1.19,0,1.21,0.01,1.21,1.22
					c0,4.88,0,9.77,0,14.65c0,1.76,0.54,2.3,2.31,2.31c4.16,0,8.32,0,12.48,0c1,0,1.04,0.05,1.05,1.05c0.01,1.93,0.01,3.86,0,5.8
					c0,1.04-0.05,1.09-1.1,1.09c-8.48,0-16.96,0-25.44,0c-8.45,0-16.9,0-25.36,0c-1.2,0-1.2,0-1.2-1.22c0-7.89,0-15.78,0-23.67
					C380.3,828.72,380.31,828.72,381.5,828.72z M432.19,903.65c-8.45,0-16.91,0-25.36,0c-8.43,0-16.85,0-25.28,0
					c-1.25,0-1.25,0-1.25-1.26c0-4.35,0-8.7,0-13.04c0-1.01,0.05-1.06,1.04-1.06c16.99,0,33.98,0,50.97,0
					c1.04,0,1.09,0.04,1.09,1.09c0,4.35,0,8.7,0,13.04C433.39,903.63,433.38,903.64,432.19,903.65z"/>
			</g>
			<g>
				<path class="st6" d="M402.27,862.7h3.7l6.46,17.19h-3.58l-1.42-4.11h-6.63l-1.42,4.11h-3.58L402.27,862.7z M406.38,872.81
					l-1.54-4.3l-0.62-2.09h-0.19l-0.62,2.09l-1.54,4.3H406.38z"/>
				<path class="st6" d="M415.82,866.54c-0.27,0-0.53-0.05-0.78-0.16c-0.25-0.1-0.46-0.25-0.65-0.43c-0.18-0.18-0.33-0.4-0.43-0.64
					c-0.1-0.24-0.16-0.5-0.16-0.79s0.05-0.55,0.16-0.79c0.1-0.24,0.25-0.45,0.43-0.64c0.18-0.18,0.4-0.33,0.65-0.43
					c0.25-0.1,0.51-0.16,0.78-0.16c0.56,0,1.04,0.2,1.44,0.59c0.4,0.39,0.6,0.87,0.6,1.43c0,0.56-0.2,1.04-0.6,1.43
					C416.86,866.34,416.38,866.54,415.82,866.54z M414.25,879.89v-11.77h3.14v11.77H414.25z"/>
			</g>
			<g>
				<path class="st3" d="M524.04,859.49c-0.01-2.66-2.09-4.62-4.77-4.66c-2.01-0.03-1.81,0.26-1.82-1.89
					c-0.01-2.39-0.02-4.78,0.01-7.17c0.01-0.82-0.24-1.5-0.79-2.12c-5.1-5.81-10.18-11.63-15.28-17.44c-0.26-0.3-0.6-0.53-0.9-0.8
					c-13.53,0-27.06,0-40.58,0c-1.73,0.64-2.48,1.89-2.48,3.72c0.02,8.16,0.01,16.32,0.01,24.48c0,1.21-0.01,1.28-1.2,1.2
					c-3.26-0.22-5.48,2.15-5.44,5.43c0.1,7.57,0.03,15.14,0.03,22.71c0,3.44,1.89,5.32,5.33,5.33c1.27,0,1.27,0,1.27,1.31
					c0,4.83,0,9.66,0,14.49c0,2.59,1.26,3.85,3.85,3.85c17.45,0,34.89,0,52.34,0c2.54,0,3.82-1.27,3.82-3.8
					c0.01-4.91,0-9.82,0-14.73c0-1.11,0-1.11,1.13-1.12c0.59,0,1.18,0.02,1.76-0.13c2.17-0.53,3.68-2.27,3.69-4.5
					C524.08,875.6,524.08,867.54,524.04,859.49z M462.1,828.72c11.62,0,23.24,0,34.86,0c1.19,0,1.21,0.01,1.21,1.22
					c0,4.88,0,9.77,0,14.65c0,1.76,0.54,2.3,2.31,2.31c4.16,0,8.32,0,12.48,0c1,0,1.04,0.05,1.05,1.05c0.01,1.93,0.01,3.86,0,5.8
					c0,1.04-0.05,1.09-1.1,1.09c-8.48,0-16.96,0-25.44,0c-8.45,0-16.9,0-25.36,0c-1.2,0-1.2,0-1.2-1.22c0-7.89,0-15.78,0-23.67
					C460.9,828.72,460.91,828.72,462.1,828.72z M512.8,903.65c-8.45,0-16.91,0-25.36,0c-8.43,0-16.85,0-25.28,0
					c-1.25,0-1.25,0-1.25-1.26c0-4.35,0-8.7,0-13.04c0-1.01,0.05-1.06,1.04-1.06c16.99,0,33.98,0,50.97,0
					c1.04,0,1.09,0.04,1.09,1.09c0,4.35,0,8.7,0,13.04C514,903.63,513.99,903.64,512.8,903.65z"/>
			</g>
			<g>
				<path class="st6" d="M470.31,880.28c-0.74,0-1.44-0.1-2.11-0.31c-0.67-0.21-1.29-0.52-1.85-0.94c-0.56-0.42-1.05-0.92-1.46-1.52
					c-0.42-0.6-0.74-1.3-0.98-2.1l3.05-1.2c0.22,0.86,0.62,1.58,1.18,2.15s1.3,0.85,2.21,0.85c0.34,0,0.66-0.04,0.97-0.13
					c0.31-0.09,0.59-0.22,0.84-0.38c0.25-0.17,0.44-0.38,0.59-0.64c0.14-0.26,0.22-0.55,0.22-0.89c0-0.32-0.06-0.61-0.17-0.87
					c-0.11-0.26-0.3-0.5-0.56-0.72c-0.26-0.22-0.61-0.44-1.03-0.65c-0.42-0.21-0.95-0.42-1.57-0.65l-1.06-0.38
					c-0.46-0.16-0.93-0.38-1.41-0.65c-0.47-0.27-0.9-0.6-1.28-0.98c-0.38-0.38-0.7-0.84-0.95-1.36c-0.25-0.52-0.37-1.11-0.37-1.76
					c0-0.67,0.13-1.3,0.4-1.89c0.26-0.58,0.64-1.1,1.13-1.54c0.49-0.44,1.07-0.78,1.75-1.03c0.68-0.25,1.44-0.37,2.27-0.37
					c0.86,0,1.61,0.12,2.24,0.35c0.63,0.23,1.17,0.53,1.61,0.89c0.44,0.36,0.8,0.76,1.07,1.19c0.27,0.43,0.47,0.84,0.6,1.23
					l-2.86,1.2c-0.16-0.48-0.45-0.91-0.88-1.3c-0.43-0.38-1-0.58-1.74-0.58c-0.7,0-1.29,0.16-1.75,0.49
					c-0.46,0.33-0.7,0.76-0.7,1.28c0,0.51,0.22,0.95,0.67,1.31c0.45,0.36,1.16,0.71,2.14,1.04l1.08,0.36
					c0.69,0.24,1.32,0.52,1.88,0.83c0.57,0.31,1.06,0.68,1.46,1.12c0.41,0.43,0.72,0.92,0.94,1.48c0.22,0.55,0.32,1.19,0.32,1.91
					c0,0.9-0.18,1.67-0.54,2.32c-0.36,0.65-0.82,1.18-1.38,1.6c-0.56,0.42-1.19,0.73-1.9,0.94
					C471.67,880.17,470.98,880.28,470.31,880.28z"/>
				<path class="st6" d="M477.18,862.7h3.51l3.55,10.35l0.62,2.21h0.19l0.67-2.21l3.7-10.35h3.51l-6.27,17.19h-3.41L477.18,862.7z"
					/>
				<path class="st6" d="M502.39,870.45h8.43c0.05,0.19,0.09,0.43,0.12,0.7c0.03,0.27,0.05,0.54,0.05,0.82
					c0,1.1-0.17,2.14-0.51,3.12c-0.34,0.98-0.86,1.85-1.59,2.62c-0.77,0.82-1.69,1.45-2.76,1.9c-1.07,0.45-2.3,0.67-3.67,0.67
					c-1.25,0-2.42-0.22-3.53-0.67c-1.1-0.45-2.07-1.07-2.88-1.87c-0.82-0.8-1.46-1.75-1.95-2.85c-0.48-1.1-0.72-2.29-0.72-3.59
					c0-1.3,0.24-2.49,0.72-3.59c0.48-1.1,1.13-2.04,1.95-2.85c0.82-0.8,1.78-1.42,2.88-1.87c1.1-0.45,2.28-0.67,3.53-0.67
					c1.39,0,2.64,0.24,3.73,0.72c1.1,0.48,2.04,1.14,2.82,1.99l-2.23,2.18c-0.56-0.59-1.18-1.04-1.87-1.36
					c-0.69-0.31-1.51-0.47-2.47-0.47c-0.78,0-1.53,0.14-2.23,0.42c-0.7,0.28-1.32,0.68-1.85,1.19c-0.53,0.51-0.95,1.13-1.26,1.86
					c-0.31,0.73-0.47,1.54-0.47,2.44c0,0.9,0.16,1.71,0.47,2.44c0.31,0.73,0.74,1.35,1.27,1.86c0.54,0.51,1.16,0.91,1.86,1.19
					c0.71,0.28,1.46,0.42,2.26,0.42c0.91,0,1.69-0.13,2.32-0.4c0.63-0.26,1.17-0.6,1.62-1.02c0.32-0.29,0.6-0.65,0.83-1.09
					c0.23-0.44,0.41-0.93,0.54-1.48h-5.4V870.45z"/>
			</g>
			<g>
				<path class="st3" d="M602.98,859.49c-0.01-2.66-2.09-4.62-4.77-4.66c-2.01-0.03-1.81,0.26-1.82-1.89
					c-0.01-2.39-0.02-4.78,0.01-7.17c0.01-0.82-0.24-1.5-0.79-2.12c-5.1-5.81-10.18-11.63-15.28-17.44c-0.26-0.3-0.6-0.53-0.9-0.8
					c-13.53,0-27.06,0-40.58,0c-1.73,0.64-2.48,1.89-2.48,3.72c0.02,8.16,0.01,16.32,0.01,24.48c0,1.21-0.01,1.28-1.2,1.2
					c-3.26-0.22-5.48,2.15-5.44,5.43c0.1,7.57,0.03,15.14,0.03,22.71c0,3.44,1.89,5.32,5.33,5.33c1.27,0,1.27,0,1.27,1.31
					c0,4.83,0,9.66,0,14.49c0,2.59,1.26,3.85,3.85,3.85c17.45,0,34.89,0,52.34,0c2.54,0,3.82-1.27,3.82-3.8
					c0.01-4.91,0-9.82,0-14.73c0-1.11,0-1.11,1.13-1.12c0.59,0,1.18,0.02,1.76-0.13c2.17-0.53,3.68-2.27,3.69-4.5
					C603.01,875.6,603.01,867.54,602.98,859.49z M541.04,828.72c11.62,0,23.24,0,34.86,0c1.19,0,1.21,0.01,1.21,1.22
					c0,4.88,0,9.77,0,14.65c0,1.76,0.54,2.3,2.31,2.31c4.16,0,8.32,0,12.48,0c1,0,1.04,0.05,1.05,1.05c0.01,1.93,0.01,3.86,0,5.8
					c0,1.04-0.05,1.09-1.1,1.09c-8.48,0-16.96,0-25.44,0c-8.45,0-16.9,0-25.36,0c-1.2,0-1.2,0-1.2-1.22c0-7.89,0-15.78,0-23.67
					C539.84,828.72,539.85,828.72,541.04,828.72z M591.73,903.65c-8.45,0-16.91,0-25.36,0c-8.43,0-16.85,0-25.28,0
					c-1.25,0-1.25,0-1.25-1.26c0-4.35,0-8.7,0-13.04c0-1.01,0.05-1.06,1.04-1.06c16.99,0,33.98,0,50.97,0
					c1.04,0,1.09,0.04,1.09,1.09c0,4.35,0,8.7,0,13.04C592.93,903.63,592.92,903.64,591.73,903.65z"/>
			</g>
			<g>
				<path class="st6" d="M550,865.77v3.99h6.89v3.07H550v3.99h7.66v3.07h-10.9V862.7h10.9v3.07H550z"/>
				<path class="st6" d="M560.64,879.89V862.7h6.05c0.82,0,1.58,0.13,2.29,0.4c0.71,0.26,1.33,0.64,1.86,1.12
					c0.53,0.48,0.94,1.05,1.25,1.72c0.3,0.66,0.46,1.4,0.46,2.2c0,0.82-0.15,1.56-0.46,2.22c-0.3,0.66-0.72,1.24-1.25,1.72
					c-0.53,0.48-1.15,0.85-1.86,1.12c-0.71,0.26-1.48,0.4-2.29,0.4h-2.81v6.32H560.64z M566.73,870.5c0.85,0,1.49-0.24,1.92-0.72
					c0.43-0.48,0.65-1.03,0.65-1.66c0-0.3-0.05-0.6-0.16-0.89c-0.1-0.29-0.26-0.54-0.48-0.76c-0.22-0.22-0.48-0.39-0.8-0.52
					c-0.32-0.13-0.7-0.19-1.13-0.19h-2.86v4.73H566.73z"/>
				<path class="st6" d="M580.11,880.28c-0.74,0-1.44-0.1-2.11-0.31c-0.67-0.21-1.29-0.52-1.85-0.94c-0.56-0.42-1.05-0.92-1.46-1.52
					c-0.42-0.6-0.74-1.3-0.98-2.1l3.05-1.2c0.22,0.86,0.62,1.58,1.18,2.15c0.56,0.57,1.3,0.85,2.21,0.85c0.34,0,0.66-0.04,0.97-0.13
					c0.31-0.09,0.59-0.22,0.84-0.38c0.25-0.17,0.44-0.38,0.59-0.64c0.14-0.26,0.22-0.55,0.22-0.89c0-0.32-0.06-0.61-0.17-0.87
					c-0.11-0.26-0.3-0.5-0.56-0.72c-0.26-0.22-0.61-0.44-1.03-0.65c-0.42-0.21-0.95-0.42-1.57-0.65l-1.06-0.38
					c-0.46-0.16-0.93-0.38-1.4-0.65c-0.47-0.27-0.9-0.6-1.28-0.98c-0.38-0.38-0.7-0.84-0.95-1.36c-0.25-0.52-0.37-1.11-0.37-1.76
					c0-0.67,0.13-1.3,0.4-1.89c0.26-0.58,0.64-1.1,1.13-1.54c0.49-0.44,1.07-0.78,1.75-1.03c0.68-0.25,1.44-0.37,2.27-0.37
					c0.87,0,1.61,0.12,2.25,0.35c0.63,0.23,1.17,0.53,1.61,0.89c0.44,0.36,0.8,0.76,1.07,1.19c0.27,0.43,0.47,0.84,0.6,1.23
					l-2.86,1.2c-0.16-0.48-0.45-0.91-0.88-1.3s-1-0.58-1.74-0.58c-0.71,0-1.29,0.16-1.75,0.49c-0.46,0.33-0.7,0.76-0.7,1.28
					c0,0.51,0.22,0.95,0.67,1.31c0.45,0.36,1.16,0.71,2.14,1.04l1.08,0.36c0.69,0.24,1.32,0.52,1.89,0.83
					c0.57,0.31,1.06,0.68,1.46,1.12c0.41,0.43,0.72,0.92,0.94,1.48c0.22,0.55,0.32,1.19,0.32,1.91c0,0.9-0.18,1.67-0.54,2.32
					c-0.36,0.65-0.82,1.18-1.38,1.6c-0.56,0.42-1.19,0.73-1.9,0.94C581.47,880.17,580.78,880.28,580.11,880.28z"/>
			</g>
			<g>
				<path class="st6" d="M655.43,876.63l8.72-10.85h-8.33v-3.07h12.1v3.27l-8.62,10.85h8.72v3.07h-12.58V876.63z"/>
				<path class="st6" d="M670.7,862.7h3.24v17.19h-3.24V862.7z"/>
				<path class="st6" d="M677.4,879.89V862.7h6.05c0.82,0,1.58,0.13,2.29,0.4c0.71,0.26,1.33,0.64,1.86,1.12s0.94,1.05,1.25,1.72
					c0.3,0.66,0.46,1.4,0.46,2.2c0,0.82-0.15,1.56-0.46,2.22c-0.3,0.66-0.72,1.24-1.25,1.72s-1.15,0.85-1.86,1.12
					c-0.71,0.26-1.48,0.4-2.29,0.4h-2.81v6.32H677.4z M683.5,870.5c0.85,0,1.49-0.24,1.92-0.72c0.43-0.48,0.65-1.03,0.65-1.66
					c0-0.3-0.05-0.6-0.16-0.89c-0.1-0.29-0.26-0.54-0.48-0.76c-0.22-0.22-0.48-0.39-0.8-0.52c-0.32-0.13-0.7-0.19-1.13-0.19h-2.86
					v4.73H683.5z"/>
			</g>
		</g>
		<g class="st2">
			<path class="st3" d="M609.14,863.79h19.74v4.88h-19.74V863.79z M609.14,872.2h19.74v4.88h-19.74V872.2z"/>
		</g>
	</g>
	<g class="st7">
		<path class="st3" d="M297,963.08h3.5c2.75,0,4.6,1.77,4.6,4.3s-1.85,4.3-4.6,4.3H297V963.08z M300.45,970.88
			c2.28,0,3.76-1.45,3.76-3.51s-1.47-3.51-3.76-3.51h-2.54v7.02H300.45z"/>
		<path class="st3" d="M315.25,967.37c0-2.5,1.91-4.37,4.52-4.37c2.58,0,4.5,1.85,4.5,4.37c0,2.52-1.93,4.37-4.5,4.37
			C317.17,971.74,315.25,969.88,315.25,967.37z M323.37,967.37c0-2.05-1.53-3.56-3.6-3.56c-2.07,0-3.62,1.51-3.62,3.56
			c0,2.05,1.55,3.56,3.62,3.56C321.83,970.93,323.37,969.42,323.37,967.37z"/>
		<path class="st3" d="M346.72,963.08l-2.9,8.59h-0.96l-2.52-7.33l-2.53,7.33h-0.95l-2.9-8.59h0.93l2.48,7.39l2.57-7.39h0.85
			l2.53,7.43l2.52-7.43H346.72z"/>
		<path class="st3" d="M364.44,963.08v8.59h-0.75l-5.52-6.97v6.97h-0.91v-8.59H358l5.54,6.97v-6.97H364.44z"/>
		<path class="st3" d="M376.11,963.08h0.91v7.81h4.81v0.79h-5.72V963.08z"/>
		<path class="st3" d="M391.28,967.37c0-2.5,1.91-4.37,4.52-4.37c2.58,0,4.5,1.85,4.5,4.37c0,2.52-1.93,4.37-4.5,4.37
			C393.19,971.74,391.28,969.88,391.28,967.37z M399.39,967.37c0-2.05-1.53-3.56-3.6-3.56c-2.07,0-3.62,1.51-3.62,3.56
			c0,2.05,1.55,3.56,3.62,3.56C397.86,970.93,399.39,969.42,399.39,967.37z"/>
		<path class="st3" d="M416.48,969.37h-4.79l-1.03,2.3h-0.95l3.93-8.59h0.9l3.93,8.59h-0.96L416.48,969.37z M416.15,968.64
			l-2.06-4.61l-2.06,4.61H416.15z"/>
		<path class="st3" d="M428.77,963.08h3.5c2.75,0,4.6,1.77,4.6,4.3s-1.85,4.3-4.6,4.3h-3.5V963.08z M432.21,970.88
			c2.28,0,3.76-1.45,3.76-3.51s-1.47-3.51-3.76-3.51h-2.54v7.02H432.21z"/>
		<path class="st3" d="M465.26,969.37h-4.79l-1.03,2.3h-0.95l3.93-8.59h0.9l3.93,8.59h-0.96L465.26,969.37z M464.93,968.64
			l-2.06-4.61l-2.06,4.61H464.93z"/>
		<path class="st3" d="M477.54,963.08h0.91v7.81h4.81v0.79h-5.72V963.08z"/>
		<path class="st3" d="M493.65,963.08h0.91v7.81h4.81v0.79h-5.72V963.08z"/>
		<path class="st3" d="M522.75,963.86v3.38h4.44v0.79h-4.44v3.65h-0.91v-8.59h5.89v0.79H522.75z"/>
		<path class="st3" d="M538.49,963.08h0.91v8.59h-0.91V963.08z"/>
		<path class="st3" d="M551.07,963.08h0.91v7.81h4.81v0.79h-5.72V963.08z"/>
		<path class="st3" d="M573.25,970.88v0.79h-6.08v-8.59h5.89v0.79h-4.98v3.06h4.44v0.77h-4.44v3.19H573.25z"/>
		<path class="st3" d="M597.26,963.86v3.38h4.44v0.79h-4.44v3.65h-0.91v-8.59h5.89v0.79H597.26z"/>
		<path class="st3" d="M612.12,967.37c0-2.5,1.91-4.37,4.52-4.37c2.58,0,4.5,1.85,4.5,4.37c0,2.52-1.93,4.37-4.5,4.37
			C614.03,971.74,612.12,969.88,612.12,967.37z M620.23,967.37c0-2.05-1.53-3.56-3.6-3.56c-2.07,0-3.62,1.51-3.62,3.56
			c0,2.05,1.55,3.56,3.62,3.56C618.7,970.93,620.23,969.42,620.23,967.37z"/>
		<path class="st3" d="M637.92,971.67l-1.96-2.76c-0.22,0.02-0.44,0.04-0.69,0.04h-2.31v2.72h-0.91v-8.59h3.22
			c2.18,0,3.51,1.1,3.51,2.95c0,1.35-0.71,2.3-1.96,2.7l2.1,2.95H637.92z M637.87,966.02c0-1.38-0.91-2.16-2.63-2.16h-2.28v4.31
			h2.28C636.96,968.17,637.87,967.37,637.87,966.02z"/>
		<path class="st3" d="M658.72,963.08v8.59h-0.87v-6.87l-3.38,5.78h-0.43l-3.38-5.75v6.84h-0.87v-8.59h0.75l3.73,6.37l3.69-6.37
			H658.72z"/>
		<path class="st3" d="M675.79,969.37H671l-1.03,2.3h-0.95l3.93-8.59h0.9l3.93,8.59h-0.96L675.79,969.37z M675.45,968.64l-2.06-4.61
			l-2.06,4.61H675.45z"/>
		<path class="st3" d="M689.31,963.86h-3.02v-0.79h6.95v0.79h-3.02v7.81h-0.91V963.86z"/>
		<path class="st3" d="M702.61,970.63l0.36-0.7c0.61,0.6,1.71,1.04,2.83,1.04c1.61,0,2.31-0.68,2.31-1.52
			c0-2.36-5.29-0.91-5.29-4.09c0-1.26,0.98-2.36,3.17-2.36c0.97,0,1.98,0.28,2.66,0.76l-0.31,0.72c-0.74-0.48-1.6-0.71-2.36-0.71
			c-1.57,0-2.27,0.7-2.27,1.56c0,2.36,5.29,0.93,5.29,4.06c0,1.26-1.01,2.34-3.2,2.34C704.51,971.74,703.24,971.29,702.61,970.63z"
			/>
	</g>
</g>
<g>
</g>
<g>
	<g>
		<path d="M368.23,390.48c4.85,6.69,4.49,8.68-1.17,14.39c-6.24,6.28-12.13,12.9-18.14,19.41c-3.45,3.73-6.49,4.63-9.8-0.37
			c-1.28-1.93-3.72-3.1-6.95-3.66c3.63,9.86,7.26,19.73,10.86,29.51c-4.12,2.22-6.88,3.71-9.65,5.19c-0.34-0.25-0.68-0.49-1.01-0.74
			c1.65-2.87,3.3-5.74,4.94-8.61c-0.55-0.48-1.09-0.96-1.64-1.44c-2.28,2.43-5.18,4.54-6.7,7.39c-1.76,3.29,3.86,9.07,6.97,7.44
			c2.17-1.14,3.95-3.03,5.9-4.58c0.56,0.33,1.13,0.67,1.69,1c-2.99,8.24-4.39,17.61-9.28,24.5c-13.66,19.23-16.19,40.85-16.82,63.23
			c-0.03,1.07,0,2.15,0,3.22c-0.65,0.04-1.3,0.08-1.95,0.12c0-12.71,0-25.41,0-38.12c-1.01,0-2.03-0.01-3.04-0.01
			c-0.88,18.03-1.75,36.07-2.63,54.1c-0.31,0.03-0.62,0.05-0.93,0.08c-0.1-8.72-0.22-17.44-0.27-26.16
			c-0.01-1.95,0.22-3.91,0.36-5.86c1.22-17.41-2.58-25.93-18.17-38.39c3.3,20.19-5.53,39.76,3.76,58.02
			c6.48,12.74,8.56,28.24,21.86,38.48c0.98-3.46,1.65-5.79,2.39-8.42c2.27,2.72,4.27,5.12,6.28,7.52c0.85-0.79,1.69-1.59,2.54-2.38
			c-5.62-5.7-11.23-11.39-16.85-17.09c0.37-0.41,0.73-0.82,1.1-1.23c1.13,0.64,2.26,1.27,4.45,2.51c0-5.9,0-11.23,0-16.8
			c0.7,0.32,1.23,0.43,1.25,0.6c1.35,11.52,6.63,19.06,18.59,22.6c3.92,1.16,6.18,8.02,9.12,12.32c0.88,1.29,1.36,3.85,2.27,3.97
			c6.68,0.87,6.86,6.44,8.49,10.99c1.96,5.46,3.94,10.91,5.78,16.4c0.53,1.59,1.35,3.72,0.73,4.94c-4.39,8.63-8.4,17.59-13.94,25.45
			c-6.25,8.87-16.05,12.01-26.77,12.1c-1.04,0.01-2.08,0.25-3.11,0.43c-0.1,0.02-0.15,0.34-0.54,1.28c3.2,0.26,6.18,0.5,9.13,0.75
			c0.47,5.99-0.96,7.41-5.96,6.32c-2.93-0.64-5.95-1.2-8.93-1.21c-43.07-0.13-86.14-0.14-129.2-0.24c-2.69-0.01-5.38-0.51-8.94-0.87
			c1.32-2.6,2.13-4.2,2.99-5.91c-3-0.72-5.93-1.68-8.95-2.1c-14.23-1.98-18.43-5.91-21.06-20.11c-0.39-2.13-0.02-4.84-1.2-6.32
			c-8.81-11.04-0.43-20.22,3.06-29.81c1.39-3.83,3.85-7.28,6.66-10.11c-1.28-5.09,1.95-10.59,7.34-15.43
			c-1.26,2.44-2.51,4.88-3.88,7.55c1.2,0.17,1.66,0.38,1.93,0.24c6.24-3.28,4.04-14.61,13.84-14.52c1.59-6.87,4.03-13.68,4.54-20.63
			c0.53-7.25-0.64-14.66-1.34-21.97c-0.77-7.99-1.92-15.94-2.79-23.93c-0.37-3.43-0.44-6.89-0.64-10.2
			c-2.15-0.41-4.41-0.13-5.39-1.12c-14.5-14.61-23.24-32.16-13.64-54.03c1.71-3.9,3.04-8,4.17-12.11c0.34-1.23-0.58-2.8-0.92-4.21
			c-1.31,0.38-3.19,0.34-3.82,1.21c-3.44,4.74-6.87,2.87-9.83-0.08c-3.19-3.19-5.76-6.98-8.74-10.39c-1.49-1.71-3.11-3.39-4.96-4.68
			c-9.2-6.48-9.59-11-4.15-20.34c4.88-8.37,9.91-16.08,18.62-20.95c1.9-1.07,3.1-3.56,4.38-5.55c5.84-9.02,19.96-12.59,29.32-7.37
			c1.31,0.73,2.73,1.71,4.14,1.77c5.39,0.24,9.69,1.91,12.15,7.16c0.43,0.91,2.03,1.28,2.86,1.76c0.9-2.68,1.85-4.99,2.46-7.39
			c1.68-6.67,4.06-13.31,4.6-20.08c0.62-7.79,1.15-9.49,9.31-9.6c15.44-0.21,30.88-0.09,46.32,0.01c6.07,0.04,13.53-1.66,17.79,1.22
			c3.96,2.68,4.5,10.41,6.53,15.92c0.68,1.84,1.22,3.72,1.95,5.54c4.96,12.41,13.06,14.43,24.12,6.32
			c3.33-2.44,7.19-4.14,10.84-5.31c-3.57,3.35-6.97,6.93-10.79,9.95c-1.51,1.2-3.96,1.49-6.02,1.66
			c-5.81,0.48-10.29,2.78-13.44,9.03c8.06-0.07,15.7-11.02,22.89,0.85c-0.37,3.33-6.62,7-2.13,12.04
			c5.41-4.73,10.4-9.29,15.62-13.57c1.77-1.45,4.23-2.02,6.17-3.29c1.5-0.98,3.56-2.3,3.8-3.72c0.25-1.5-1.09-3.56-2.26-4.92
			c-1.81-2.08-4.07-3.77-5.64-6.15c6.24,1.25,10.09,5.28,12.16,10.92c0.44,1.2-0.65,3.39-1.67,4.6c-1.06,1.26-3.15,1.63-4.3,2.85
			c-1.57,1.66-2.67,3.76-3.98,5.67c1.94,1.05,3.83,2.21,5.85,3.1c1.57,0.69,3.29,1.04,4.8,2c-11.1,1.99-11.1,1.99-10.06,13.37
			c11.01-5.55,19.74,3.32,31.47,5.19c-6.56-5.95-11.81-10.72-17.46-15.85c3.49-0.85,6.05-1.48,8.61-2.1
			c-0.01-0.46-0.03-0.91-0.04-1.37c-1.42-0.32-2.85-0.63-4.89-1.09c2.69-2.56,5.13-4.87,8.06-7.65c4.57,1.59,1.64,6.53,2.15,10.33
			c-1.23,2.02-3.93,5.22-3.43,5.85c2.58,3.2,5.98,5.73,9.1,8.5c0.54-0.43,1.09-0.86,1.63-1.29
			C368.84,395.4,368.53,392.94,368.23,390.48z M223.62,411.31c0.98-2.04,1.96-4.08,2.75-5.74c-3.04-1.84-5.72-3.47-8.2-4.97
			c-2.95,0.25-5.92,0.51-9.25,0.79c3.07,4.17,6.1,8.29,9.21,12.51c2.01-0.99,3.87-1.9,5.72-2.82c2.93,4.29,4.36,10.06,11.01,11.73
			c0.52-2.66,0.89-4.56,1.14-5.87c3.56,2.27,6.84,4.35,10.12,6.44C244.26,415.59,232.26,410.12,223.62,411.31z M169.31,608.99
			l-0.09-0.03c0.19,1.47,0.67,2.98,0.51,4.42c-0.68,6.19-2.6,12.47-2.01,18.51c0.5,5.09-0.46,7.88-4.37,10.93
			c-1.58,1.23-1.13,5.05-1.68,8.11c4.98-6.94,9.2-12.81,14.18-19.74c4.19,4.4,8.03,11.15,13.43,5.23c6.41,2.11,12.3,3.1,17.11,5.91
			c4.55,2.67,7.98,7.26,12.37,11.46c-0.32-6.89-4.57-10.25-9.3-13.41c-4.58-3.07-7.26-10.34-4.21-11.98
			c6.49-3.48,8.34-8.87,9.85-15.31c0.69-2.94,3.52-5.39,5.37-8.06c1.15-1.66,2.29-3.33,3.91-5.71c-9.74,3.06-13.92,8.3-14.23,16.86
			c-0.26,7.29-4.41,9.47-11.33,6.43c-2.35-1.03-5.26-0.7-7.86-1.27c-2.21-0.48-5.17-0.72-6.3-2.2c-1.97-2.59-3.08-5.98-4.02-9.19
			c-1.66-5.62-8.31-12.32-12.17-10.98c-5.97,2.07-6.33,7.55-6.07,12.9c0.08,1.76,0.6,3.49,0.91,5.24c0.74-0.03,1.49-0.05,2.23-0.08
			c0.19-2.87,0.38-5.75,0.61-9.08C167.15,608.28,168.23,608.63,169.31,608.99z M251.39,592.76c-15.96,2.93-29.48,13.1-29.73,31.12
			c-0.23,16.97,10.73,30.95,31.35,32.38c8.42,0.58,16.82-2.91,22.56-8.87c7.56-7.85,11.42-18.18,8.8-29.18
			c-1.38-5.81-4.29-12.3-8.59-16.14C268.09,595.21,258.74,590.41,251.39,592.76z M275.05,414.44c1.74-1.52,2.7-2.09,3.28-2.91
			c3.08-4.39,9.8-7.39,4.86-14.83c-0.94-1.41,0.67-6.42,2.39-7.34c5.01-2.68,4.02-6.64,3.76-10.68c-0.32-4.76-0.34-9.58-1.22-14.23
			c-0.52-2.73-2.26-7.29-3.77-7.43c-6.5-0.59-8.59-6.74-13.27-9.11c-7.4-3.74-15.3-6.5-23.68-9.96c-0.08-0.69-0.31-2.84-0.55-4.99
			c-0.42,0-0.84,0.01-1.27,0.01c-0.41,2.54-0.83,5.07-1.24,7.61c-0.61-0.16-1.22-0.32-1.83-0.48c-0.25-2.37-0.5-4.74-0.75-7.11
			c-0.42,0.03-0.83,0.06-1.25,0.08c0,2.19,0,4.38,0,5.36c-7.8,3.57-14.39,13.6-24.61,3.59c5.48-0.54,10.14-0.69,14.64-1.61
			c1.65-0.34,3.07-2.37,4.26-3.89c0.2-0.25-1.32-1.84-2.04-2.81c-1.26,1.17-2.52,2.34-3.19,2.96c-5.07-1.43-9.94-3.14-14.95-4.1
			c-3.24-0.63-4.74,1.16-3.85,4.75c0.57,2.31,0.46,4.79,0.66,7.2c0.26-0.02,0.52-0.04,0.78-0.06c0.39,3.62,0.77,7.25,1.16,10.87
			c-0.68-0.37-1.36-0.75-2.04-1.12c-1.83,0.85-4.44,1.21-5.33,2.65c-2.64,4.28-0.11,9.9,5.41,12.67c0.73-1.77,1.45-3.51,2.17-5.25
			c3.2,3.74,6.08,7.12,9.36,10.96c2.8-3.16,5.03-5.69,7.93-8.97c-3.93-2.22-7.14-4.04-10.3-5.83c3.86-7.53,5.21-7.9,14.32-3.99
			c-3.39,0.45-6.41,0.85-10.19,1.35c3.16,5.16,7.08,5.61,11.23,4.48c1.31-0.36,3.27-3.06,3.14-3.22c-2.39-2.92-5.06-5.62-7.03-7.7
			c8.51-0.71,12.51,3.68,10.38,12.75c-0.31,1.32,1.18,4.32,2.1,4.44c3.04,0.39,6.28,0.1,9.24-0.71c0.46-0.12,0.32-4.52-0.45-6.6
			c-1.75-4.76,0.74-7.56,4.05-9.88c4.58-3.21,9.13-2.28,13.14,1.18c3.32,2.86,3.69,6.32,0.8,9.76c-3.3,3.92-2.54,6.91,3.37,10.5
			c2.18-4.42,4.17-8.46,5.88-11.93c1.86,3.43,3.47,7.76,1.58,13.5c-1.75,5.31-1.46,11.28-2.32,16.92c-0.49,3.24-0.48,8.15-2.45,9.29
			C270.92,404.36,273.51,408.7,275.05,414.44z M200.23,487.94c-0.7,0.12-1.39,0.24-2.09,0.36c-3.11,3.58-5.98,7.41-9.39,10.67
			c-3.87,3.69-4.32,7.68-4.08,12.87c0.47,10.1-0.12,20.28-0.72,30.41c-0.55,9.22-1.7,18.39-2.56,27.36c3.6,0.9,5.77,1.45,8.14,2.04
			c-2.08,7.29-8.75,4.05-12.54,6.4c-0.58,2.21-1.7,4.31-1.48,6.26c0.21,1.8,2.6,5,2.78,4.91c4.07-1.92,9.92-3.26,11.56-6.6
			c5.98-12.18,10.56-25.04,15.62-37.66c0.81-2.01,1.87-4.09,1.97-6.18C208.3,521.29,202.31,504.96,200.23,487.94z M235.62,539.15
			c0.89-0.09,1.79-0.18,2.68-0.27c0.24-10.95,0.58-21.9,0.58-32.84c0-1.24-1.77-2.97-3.11-3.54c-0.77-0.32-2.42,1.15-3.51,2.02
			c-0.86,0.69-1.47,1.68-2.28,2.66c-5.11-7.36-9.84-10.38-13.74-8.2c-5.68,3.18-3.34,8.8-2.98,13.5
			c1.04,13.42,2.28,26.84,3.79,40.21c0.48,4.2,2.49,8.22,3.03,12.42c0.3,2.32-0.59,5.09-1.76,7.2c-0.78,1.4-3,1.99-3.75,2.44
			c0.82,4.58,1.47,8.22,2.36,13.18c4.48-3.15,8.48-5.97,12.73-8.96c1.63,1.09,4.34,2.9,7.06,4.72c0.61-0.62,1.21-1.23,1.82-1.85
			c-2.36-4.35-4.72-8.71-7.08-13.07c-2.87,1.69-4.93,2.9-6.99,4.11c-0.49-0.5-0.98-1.01-1.47-1.51c1.88-2.37,3.35-5.34,5.74-6.95
			c2.42-1.64,5.75-1.94,7.76-2.54c-4.07-14.82-8.04-28.77-7.07-43.45c0.84-0.15,1.68-0.29,2.52-0.44
			C233.17,525.03,234.39,532.09,235.62,539.15z M268.27,544.13c0.7-0.11,1.39-0.23,2.09-0.34c1.12,4.91,1.84,9.96,3.46,14.69
			c1.73,5.04,3.69,10.22,6.66,14.58c6.81,9.96,7.08,9.77,9.55,9.64c-12.42-18.39-15.42-56.38-6.67-64.23
			c-0.71,7.55-1.41,14.99-2.11,22.43c0.85,0.05,1.7,0.1,2.56,0.16c3.98-12.87,4.95-26.03,2.87-39.51c-0.73,1.23-1.46,2.47-2.6,4.38
			c-0.66-2.6-1.2-4.25-1.49-5.96c-0.96-5.69-3.66-5.83-8.17-3.19c-5.78,3.38-8.51,7.76-6.95,14.51c0.32,1.4,0.05,2.94,0.05,4.41
			c-0.36,0.02-0.72,0.05-1.09,0.07c-1.51-3.29-3.02-6.57-4.54-9.86c-4.04,9.81-4.28,19,0.46,30.04c2.13-4.96,3.49-8.13,4.85-11.3
			c0.54,0.15,1.09,0.29,1.63,0.44c-1.83,12.3-3.67,24.6-5.58,37.43c2.07-0.58,3.13-0.87,5.76-1.6c-0.7,7.82-1.31,14.73-1.97,22.09
			c2.87,0.24,6.59,0.55,11.06,0.92c0.28-3.09,0.53-5.83,0.91-9.97c-2.69,1.97-3.99,2.93-5.42,3.98
			C271.8,566.42,270.04,555.27,268.27,544.13z M240.85,560.03c-0.33,0.03-0.66,0.06-0.99,0.1c1.19,7.25,2.02,14.58,3.69,21.72
			c1.61,6.89,7.46,5.18,12.3,4.91c5.19-0.29,3.72-4.15,3.79-7.25c0.09-4.33,0.83-8.7,0.44-12.97c-1.49-16.52-3.29-33.01-5.06-49.5
			c-0.11-0.99-0.73-2.5-1.46-2.75c-2.75-0.96-5.62-1.8-8.5-2.01c-0.75-0.05-2.35,2.3-2.41,3.6
			C241.92,530.59,241.41,545.31,240.85,560.03z M148.06,425.18c14.58-5.64,15.3-17.29,14.49-29.78c-0.37-5.77-0.37-11.55-9.25-12.36
			c3.41-2.13,5.8-3.62,8.32-5.19c-10.14-10.3-21.83-4.6-25.99,4c7.03-4.33,7.47-4.24,9.74,0.67c-4.18,7.24-7.94,13.74-11.73,20.29
			c6.33,2.6,10.63-1.62,9.95-10.36c4.63,0.83,9.07,1.62,12.96,2.31c-2.75,2.79-6.35,5.17-7.8,8.49c-0.65,1.5,2.98,4.87,4.67,7.39
			c0.51-0.41,1.02-0.82,1.53-1.24c-0.9-1.72-1.79-3.45-2.69-5.17c0.59-0.31,1.18-0.61,1.77-0.92c0.99,2.25,3.18,4.81,2.69,6.67
			c-0.72,2.75-2.83,5.97-5.26,7.24C147.9,419.1,145.34,420.33,148.06,425.18z M287.58,600.44c5.05,3.87,3.35,12.38,11.6,12.94
			c0.5,0.03,1.04,2.98,1.14,4.6c0.3,5.07,0.28,10.15,0.69,15.21c0.09,1.05,1.29,2.45,2.33,2.91c7.53,3.33,8.23,9.16,6.34,16.14
			c-0.14,0.51,0.56,1.25,0.88,1.92c0.82-0.46,1.43-0.59,1.51-0.87c3.52-11.9,7.06-23.8,10.4-35.76c0.36-1.28,0.03-3.32-0.82-4.19
			c-0.78-0.8-2.94-1.07-4.05-0.58c-4.67,2.07-8.77,4.68-8.4,10.89c0.13,2.18-0.69,4.42-1.35,8.22c-6.13-10.86,0.03-16.18,5.9-21.72
			c-1.91-2.92-3.64-5.56-5.27-8.04c-4,2.06-7.34,3.79-10.45,5.4C293.92,605.91,295.8,597.81,287.58,600.44z M176.12,390.55
			c1.1-2.69,2.26-4.61,2.66-6.67c0.84-4.37,1.17-8.84,1.91-13.23c1.61-9.47-3.76-16.32-11.32-14.01c-4.47,1.36-8.83,3.2-13.04,5.24
			c-4.22,2.05-4.53,5.99-0.41,7.71c5.48,2.29,10.11,4.63,9.34,12.45c2.3-1.81,3.79-3.1,4.32-4.7c0.62-1.85,0.39-3.98,0.56-6.51
			c4.69,6.8,4.23,8.37-3.57,13.55c1.16,1.49,2.32,2.96,3.57,4.57c-1.54,1.17-2.79,2.11-4.46,3.38c3.73,2.48,6.99,4.65,11.74,7.8
			C176.87,395.99,176.47,393.06,176.12,390.55z M201.35,425.86c1.18-4.92,3.35-9.28,2.81-13.27c-0.42-3.12-3.7-6.61-6.63-8.44
			c-3.12-1.94-7.32-2.18-11.07-3.01c-2.17-0.48-4.4-0.66-6.6-0.98c-0.31,2.44-1.75,5.61-0.73,7.18c3.22,4.97,7.36,9.34,12.09,15.09
			c1.98-5.36,3.21-8.68,4.99-13.48c2.39,3.13,3.71,4.85,5.11,6.67C195.07,418.73,194.97,420.2,201.35,425.86z M173.21,439.56
			c2.72,4.11,4.63,7,6.55,9.9c-3.03,0.53-5.61,0.97-9.04,1.57c2.59,3.52,4.5,6.12,7.36,10.02c-4.47-0.68-7.17-1.1-9.87-1.51
			c-0.71,0.91-1.42,1.83-2.13,2.74c5.24,2.66,10.49,5.32,15.73,7.98c-0.72,0.94-1.44,1.89-2.16,2.83
			c0.44-5.14,0.75-10.29,1.36-15.41c0.56-4.66-0.21-11.23,2.51-13.55c7.16-6.11,0.18-9.56-1.24-13.93
			c-0.26-0.81-2.72-0.91-4.16-1.34c-0.27,1.35-1.14,2.98-0.67,3.99c1.04,2.23,2.75,4.16,4.53,6.7
			C179.26,439.56,177.18,439.56,173.21,439.56z M161.17,464.74c0.67-0.07,1.33-0.15,2-0.22c3.34-9.6,6.72-19.18,9.95-28.82
			c0.27-0.81-0.29-2.06-0.77-2.93c-1.99-3.64-4.09-7.21-6.44-11.31c-7.51,6.4,2.9,10.73,2.5,16.71c-2.61-0.96-4.63-1.71-7.59-2.8
			c1.48,4.13,2.61,7.27,4.25,11.85c-3.14-2.47-4.86-3.83-6.58-5.18c-0.63,0.39-1.26,0.78-1.89,1.17c2.1,4.26,4.2,8.52,6.9,13.98
			c-3.22-1.65-5.27-2.7-7.32-3.75c-0.44,0.38-0.89,0.76-1.33,1.13C156.95,457.95,159.06,461.35,161.17,464.74z M275.52,378.22
			c-14.18,5.76-14.18,5.76-17.05,4.45c2.78-0.88,5.71-1.82,8.65-2.75c-0.08-0.34-0.16-0.67-0.24-1.01c-3.73,0-7.46,0-12.4,0
			c1.38-3.73,2.44-6.62,2.93-7.95c-4.99,0.41-10.7,0.87-16.62,1.36c1.36,1.73,3.09,3.92,4.91,6.24c-1.25,0.15-2.59,0.31-3.94,0.47
			c10.4-0.37,18.18,14.85,30.84,5.59c-1.77,3.42-3.53,6.85-5.84,11.31C278.29,392.9,274.41,384.48,275.52,378.22z M234.12,390.79
			c0,3.33-0.67,6.21,0.19,8.52c0.87,2.34,3.14,5.7,5.01,5.85c6,0.45,12.12-0.19,18.15-0.83c1.76-0.19,4.37-1.42,4.85-2.78
			c1.06-3.05,1.03-6.49,1.39-9.34c-4.7,2.35-9.39,6.61-13.9,6.41C244.92,398.41,240.22,394.05,234.12,390.79z M257.81,336.87
			c0.36,0.59,0.71,1.18,1.07,1.77c4.02-0.69,8.03-1.38,12.56-2.15c-1.82,1.68-3.17,2.92-5.17,4.77c3.09,1.86,5.78,3.16,8.09,4.97
			c2.28,1.78,4.17,4.07,7.45,7.35c0.31-3.39,0.86-5.5,0.6-7.51c-0.27-2.11-1.5-4.07-1.99-6.18c-2.16-9.15-3.57-9.81-12.22-5.56
			c-1.08,0.53-2.26,0.87-3.42,1.31c-0.78-1.86-1.39-3.32-2.66-6.34C260.23,332.61,259.02,334.74,257.81,336.87z M323.21,654.56
			c2.33-0.75,3.48-0.77,3.76-1.28c3.09-5.43,6.31-10.81,8.88-16.48c0.97-2.15,1.38-5.75,0.21-7.38c-1.65-2.3-4.83-3.91-7.68-4.76
			c-1.45-0.44-4.68,0.99-5.2,2.31c-1.42,3.66-1.84,7.71-2.66,11.61c0.44,0.43,0.87,0.87,1.31,1.3c3.2-1.97,6.4-3.95,9.6-5.92
			c0.43,0.19,0.87,0.39,1.3,0.58C329.79,640.75,326.84,646.95,323.21,654.56z M260.66,449.3c-0.24,0.58-0.48,1.16-0.71,1.75
			c-3.28-0.55-6.56-1.09-9.84-1.64c-0.19,0.55-0.38,1.1-0.57,1.65c4.72,4.01,9.43,8.03,15.78,13.43c-0.62-3.49-1.24-5.64-1.31-7.8
			c-0.09-2.45,0.32-4.91,0.58-8.34c-0.65-0.76-2.05-2.39-3.47-4c-1.56-1.77-2.84-4.23-4.8-5.08c-1.99-0.86-4.67-0.12-7.04-0.08
			c1.24,2.12,2.06,4.72,3.83,6.22C255.21,447.19,258.11,448.04,260.66,449.3z M315.43,410.16c-2.72-0.27-3.61-0.62-4.33-0.4
			c-6.29,1.91-8.25,6.9-5.56,13.13c2.16,5,3.93,10.16,6.24,16.2c3.7-4.58,6.3-7.79,9.83-12.16c-4.59,0.5-7.87,0.85-12.25,1.33
			c2.89-3.06,4.74-5.03,7.11-7.54c-3.73-0.63-6.13-1.03-8.98-1.5C310.21,416.12,312.37,413.65,315.43,410.16z M186.84,432.17
			c3.54-4.79,3.39-10.22-1.26-12.15c-6.95-2.9-13.97-5.38-19.79-10.35c-0.12-0.1-0.71,0.35-1.08,0.55
			c2.91,5.53,5.83,11.09,8.85,16.85c1.4-1.2,3.4-2.92,5.88-5.04C182.11,425.69,184.44,428.89,186.84,432.17z M201.51,373.58
			c-3.38-5.26-7.76-6.91-12.68-6.52c-1.94,0.15-3.73,2.21-5.59,3.4c1.32,1.53,2.38,3.46,4.01,4.52c4.7,3.07,10.36,4.98,11.17,11.86
			c0.15,1.26,2.16,2.29,3.31,3.43c0.48-0.39,0.97-0.78,1.45-1.17c-1.96-4.73-3.91-9.46-6.02-14.55
			C198.49,374.26,199.57,374.02,201.51,373.58z M245.89,452.44c-7.9,4.22-11.11,10.6-8.11,16.38c2.75-3.8,5.43-7.48,7.63-10.51
			c6.4,4.94,12.44,9.59,18.47,14.24c0.6-0.68,1.2-1.35,1.81-2.03C259.2,464.59,252.7,458.67,245.89,452.44z M205.75,571.51
			c3.58-2.58,8.39-4.4,8.46-6.38c0.28-8.52-0.83-17.08-1.44-25.63c-0.52,0.02-1.03,0.04-1.55,0.06
			C209.52,549.45,207.83,559.35,205.75,571.51z M342.09,401.13c-0.8-0.85-1.6-1.71-2.41-2.56c-2.37,2.08-5.94,3.74-6.84,6.32
			c-1.44,4.16-1.64,9.01,3.73,11.71c1.85,0.93,3.13,3.01,4.97,3.97c1.97,1.03,4.31,1.35,6.49,1.98c-0.94-2.17-1.55-4.62-2.96-6.43
			c-0.92-1.19-3.12-1.3-4.55-2.2c-1.87-1.18-3.56-2.66-5.35-4.03C337.82,406.52,339.95,403.82,342.09,401.13z M322.47,444.26
			c-0.6-0.53-1.19-1.05-1.79-1.58c1.47-2.04,3.06-4,4.34-6.15c0.46-0.77,0.45-2.07,0.14-2.95c-0.16-0.46-1.98-0.92-2.12-0.72
			c-2.24,3.15-5.12,6.22-6.02,9.77c-0.29,1.15,4.77,5.33,7.16,5.15c4.31-0.32,7.64-3.43,6.44-10.01c-2.02,1.26-3.45,1.97-4.65,2.95
			C324.7,441.77,323.63,443.07,322.47,444.26z M194.05,425.55c-0.94,4.91-2.93,9.82-2.48,14.49c0.43,4.42-5.79,9.61,1.1,13.44
			C198.66,441.44,199.37,429.27,194.05,425.55z M347.52,612.52c-5,7.97-4.69,22.64,0,29.02
			C347.52,631.17,347.52,621.85,347.52,612.52z M194.97,482.54c-1.07-5.77-1.79-9.62-2.64-14.19c-0.63,0-2.42,0-4.48,0
			c4.14-6.71,3.97-8.71,0.26-11.12c-1.45,2.67-3.11,5.22-4.21,8c-0.47,1.19-0.21,3.2,0.54,4.23
			C187.44,473.54,190.77,477.39,194.97,482.54z M155.35,612.57c-0.79-0.04-1.58-0.07-2.37-0.11c0,8.78,0,17.57,0,26.35
			c0.79,0,1.58,0,2.37,0.01C155.35,630.07,155.35,621.32,155.35,612.57z M292.41,420.11c1.82-4.86,3.32-8.86,4.82-12.86
			c-0.53-0.28-1.05-0.56-1.58-0.85c-1.43,0.89-2.86,1.79-4.57,2.86c0.77-3.91,1.43-7.22,2.08-10.52
			C287.05,403.68,286.93,412.96,292.41,420.11z M316.25,404.95c3.93-3.23,6.37-5.63,9.18-7.44c4.71-3.05,5.25-4.41,3.02-8.96
			c-2.62,2.05-5.29,4.3-8.12,6.32c-2.09,1.49-5.51,2.25-6.25,4.14C313.43,400.68,315.65,403.49,316.25,404.95z M290.03,570.09
			c3.27-6.89,2.07-16.04-2.46-21.05C283.91,555.66,284.94,565.88,290.03,570.09z M168.28,490.55c2.42-4.94,5.58-8.86,5.9-13
			c0.2-2.57-3.93-5.47-6.11-8.22c-0.62,0.47-1.24,0.93-1.86,1.4c1.25,3.01,2.5,6.03,4.12,9.93c-2.97-0.82-4.97-1.37-7.77-2.14
			C164.5,482.62,166.01,485.79,168.28,490.55z M352.48,637.73c0.71,0.01,1.42,0.02,2.13,0.03c0-9.08,0-18.17,0-27.25
			c-0.71-0.01-1.42-0.02-2.13-0.02C352.48,619.57,352.48,628.65,352.48,637.73z M234.79,444.28c4.87-5.33,8.9-9.74,13.45-14.72
			C239.22,427.67,232.31,434.94,234.79,444.28z M288.06,635.91c9.6-5.1,9.6-5.1,5.45-20.21
			C288.28,621.79,292.28,628.95,288.06,635.91z M128.85,402.07c3.88-4.77,9.26-8.33,9.05-15.97
			C128.6,389.4,124.69,396.32,128.85,402.07z M214.77,386.67c-0.69-0.54-1.38-1.07-2.07-1.61c-2.15,2-4.3,4-6.45,6.01
			c2.75,2.38,6.45,7.31,8.08,6.7C222.36,394.77,213.74,390.52,214.77,386.67z M295.94,435.68c0.7,0.21,1.4,0.42,2.11,0.63
			c1.71-2.81,3.43-5.62,5.87-9.62c-3.29,1.04-4.88,1.54-7.87,2.48c1.82-4.38,3.11-7.47,4.39-10.56c-0.45-0.36-0.89-0.71-1.34-1.07
			c-2.04,1.69-5.78,3.37-5.78,5.07C293.3,426.97,294.95,431.33,295.94,435.68z M230.26,397.83c1.03-0.97,2.06-1.95,3.09-2.92
			c-9.82-2.73-11.24-9.44-9.51-17.72c-5.65,4.3-5.45,9.79-3.29,13.91C222.16,394.19,226.91,395.65,230.26,397.83z M252.81,429.26
			c4.05,4.73,7.95,9.28,12.45,14.54C266.48,434.9,260.27,428.57,252.81,429.26z M203.76,370.19c1.08,5.36,2.01,9.99,2.94,14.61
			c0.6,0.2,1.2,0.39,1.81,0.59c2.4-3.32,4.8-6.64,6.93-9.58C211.1,373.73,208.21,372.34,203.76,370.19z M242.07,390.98
			c4.12,6.53,6.78,7.11,13.39,2.94C253.2,386.7,248.59,385.69,242.07,390.98z M270.29,357.68c-3.26,0-6.52,0-9.77,0
			c-0.12-0.32-0.24-0.64-0.36-0.96c2.4-1.34,4.81-2.69,7.46-4.18c-4.3-3.05-6.81,0.15-8.7,2.92c-1.06,1.55-1.47,5.51-0.63,6.07
			C262.7,364.47,266.69,362.38,270.29,357.68z M195.03,392.66c1.49-8.45-3.64-13.8-12.92-12.55
			C186.15,384.03,190.19,387.96,195.03,392.66z M234.28,453.66c3.73-2.84,7.38-5.34,10.62-8.27c0.86-0.78,0.51-2.9,0.71-4.4
			c-1.67,0.38-3.63,0.32-4.92,1.23c-1.82,1.28-2.85,3.79-4.74,4.85C231.2,449.75,232.95,452.13,234.28,453.66z M312.95,392.62
			c-4.79-5.18-8.46-2.1-11.82,0.2c-2.5,1.71-5.37,3.95-2.11,7.44C303.72,397.68,308.1,395.27,312.95,392.62z M319.12,418.73
			c4.3-6.19,7.85-11.29,11.4-16.39c-0.5-0.33-1-0.66-1.5-1C322.07,404.93,317.41,412.08,319.12,418.73z M328.69,583.09
			c0.7,0.14,1.4,0.28,2.1,0.42c0.58-1.39,1.16-2.77,1.61-3.83c2.72,2.37,4.59,4.01,6.46,5.64c-0.89-8.47-7.19-9.37-15.14-11.64
			C325.93,577.84,327.31,580.46,328.69,583.09z M307.79,380.26c-4.75,2.13-9.49,4.26-14.38,6.45
			C298.2,391.47,305.23,389.03,307.79,380.26z M180.01,527.56c0.56-0.1,1.13-0.19,1.69-0.29c2.1-10.75,0.96-17.87-4.27-21.82
			C178.35,513.34,179.18,520.45,180.01,527.56z M225.7,467.31c2.04-2.83,4.06-5.06,5.34-7.66c0.6-1.21-0.04-3.2-0.54-4.69
			c-0.13-0.4-1.98-0.63-2.79-0.31C223.66,456.24,222.48,462.85,225.7,467.31z M175.78,414.82c1.63-7.76-4.37-15.88-11.33-16.05
			C168.15,404.02,171.66,408.98,175.78,414.82z M183.29,388.42c-1.07,9.74,7.19,8.77,10.65,12.42
			C193.95,394.17,188.7,392.18,183.29,388.42z M272.15,409.79c-8.72,3.06-10.23,6.76-6,14.78
			C268.35,419.16,269.95,415.22,272.15,409.79z M308.53,370.74c-5.08,3.58-12.51,2.52-15.05,9.94
			C301.25,380.68,307.21,376.85,308.53,370.74z M338.99,408.89c4.96,3.17,8.6,5.5,12.52,8C353.6,409.69,349.63,407.09,338.99,408.89
			z M215.64,636.66c0.42-0.48,0.84-0.96,1.26-1.45c-0.43-2.94-0.86-5.89-1.58-10.78c-2.85,3.31-4.77,5.54-6.7,7.77
			C210.96,633.69,213.3,635.17,215.64,636.66z M247.37,503.1c0.24,0.27,0.47,0.54,0.71,0.81c2.28-1.83,4.69-3.52,6.77-5.55
			c1.06-1.03,2.4-2.98,2.07-3.98c-0.58-1.73-2.39-3.04-3.27-4.07C251.24,495.21,249.31,499.15,247.37,503.1z M329.99,379.93
			c-11.33,3.66-13.61,7.75-8.56,11.32C324.31,387.44,327.15,383.69,329.99,379.93z M263.03,418.75c-3.42-2.17-5.29-4.25-7.07-4.18
			c-1.35,0.05-3.25,2.72-3.61,4.49c-0.2,0.97,2.37,3.56,3.57,3.49C257.82,422.44,259.62,420.7,263.03,418.75z M225.03,439.31
			c0.77,0.07,1.54,0.14,2.32,0.22c2.74-3.92,5.48-7.83,8.22-11.75c-0.6-0.62-1.2-1.23-1.8-1.85c-2.55,2.34-5.46,4.4-7.51,7.12
			C225.1,434.57,225.39,437.18,225.03,439.31z M266.03,426.72c-0.76,0.96-1.52,1.92-2.28,2.89c4.11,2.93,8.23,5.86,12.34,8.79
			c0.59-0.75,1.17-1.5,1.76-2.26C273.91,432.99,269.97,429.86,266.03,426.72z M148.13,634.33c0.49,0,0.99,0,1.48,0
			c0-7.47,0-14.93,0-22.4c-0.49,0-0.99,0-1.48,0C148.13,619.4,148.13,626.86,148.13,634.33z M216.23,481.27
			c2.87-2.22,2.87-2.22,1.79-15.85C213.81,468.52,213.81,468.52,216.23,481.27z M243.44,663.86c-0.01-0.38-0.02-0.75-0.03-1.13
			c-6.43,0-12.87,0-19.3,0c0.01,0.38,0.02,0.75,0.03,1.13C230.57,663.86,237.01,663.86,243.44,663.86z M300.31,473.78
			c-7.09,9.05-7.43,14.13-2.24,17.44C298.73,486,299.41,480.78,300.31,473.78z M301.67,471.2c6.44-5.8,6.86-9.47,1.76-15.34
			C302.84,461.01,302.3,465.7,301.67,471.2z M270.74,457.66c-0.85,0.63-1.7,1.25-2.55,1.88c2.72,3.71,5.44,7.43,8.15,11.14
			c0.88-0.66,1.77-1.32,2.65-1.98C276.24,465.03,273.49,461.35,270.74,457.66z M239.57,487.31c0.84,0.78,1.67,1.55,2.51,2.33
			c2.97-3.68,5.94-7.37,8.91-11.05c-0.65-0.57-1.3-1.13-1.94-1.7C245.89,480.36,242.73,483.84,239.57,487.31z M278.1,448.81
			c0.64-0.57,1.28-1.13,1.92-1.7c-2.64-2.95-5.28-5.9-7.93-8.85c-0.59,0.52-1.18,1.04-1.77,1.56
			C270.89,444.59,273.8,447.31,278.1,448.81z M230.39,380.01c2.75,7.96,6.52,8.47,12.86,2.24c-2.1-0.2-4.01-0.26-5.87-0.58
			C235.3,381.3,233.27,380.7,230.39,380.01z M272.71,490.11c0.48-0.31,0.97-0.63,1.45-0.94c-1.56-9.7-6.01-12.94-12.85-8.15
			c2.7,0,4.57,0,5.96,0C269.16,484.18,270.94,487.15,272.71,490.11z M270.06,447.11c-0.48,0.45-0.96,0.89-1.44,1.34
			c1.32,4.79,3.89,8.39,8.71,9.86c0.52-0.48,1.04-0.97,1.55-1.45C275.94,453.6,273,450.36,270.06,447.11z M222.89,477.13
			c8.85-0.75,10.78-3.42,7.47-9.55C228.01,470.6,225.9,473.29,222.89,477.13z M205.61,581.67c1.92,1.81,3.37,3.17,5.62,5.3
			c0-4.88,0-9.18,0-13.48c-0.52-0.15-1.04-0.3-1.55-0.45C208.24,576.1,206.8,579.16,205.61,581.67z M236.09,488.12
			c-0.5-0.38-0.99-0.76-1.49-1.14c-5.9,2.71-7.18,4.82-5.77,11.77C231.7,494.55,233.9,491.34,236.09,488.12z M300.15,408.82
			c0.71,0.5,1.42,1,2.13,1.5c3.39-2.03,7.24-3.76,6.21-8.67c-0.69-0.49-1.39-0.97-2.08-1.46
			C304.32,403.07,302.24,405.94,300.15,408.82z M315.93,463.41c0.88,0.39,1.77,0.77,2.65,1.16c1.62-3.59,3.24-7.19,4.86-10.78
			c-0.99-0.43-1.98-0.86-2.96-1.3C318.96,456.14,317.45,459.77,315.93,463.41z M181.93,475.93c-1.01,0.66-2.02,1.32-3.04,1.98
			c2.27,3.34,4.53,6.68,6.8,10.01c0.87-0.56,1.74-1.12,2.61-1.68C186.18,482.8,184.06,479.37,181.93,475.93z M246.94,492.15
			c-0.51-0.56-1.02-1.11-1.53-1.67c-2.33,2.18-4.89,4.18-6.82,6.67c-0.52,0.67,0.89,2.84,1.71,5.16
			C243.05,498.11,244.99,495.13,246.94,492.15z M309.04,459.06c1.06,0.27,2.12,0.54,3.18,0.81c1.12-3.84,2.24-7.67,3.36-11.51
			c-0.98-0.3-1.97-0.59-2.95-0.89C311.43,451.33,310.23,455.2,309.04,459.06z M213.59,428.9c6.98,2.22,9.11,0.59,9.36-6.66
			C219.35,424.79,216.47,426.85,213.59,428.9z M247.28,470.74c-0.76-0.7-1.52-1.4-2.27-2.1c-2.77,2.96-5.53,5.92-8.3,8.88
			c0.74,0.69,1.49,1.37,2.23,2.06C241.72,476.63,244.5,473.68,247.28,470.74z M219.84,451.88c-6.44,0.06-7.66,3.34-7.66,7.35
			c0.68,0.42,1.36,0.85,2.04,1.27C216.1,457.63,217.97,454.76,219.84,451.88z M209.34,500.16c-0.49,0.04-0.99,0.09-1.48,0.13
			c0,5.1,0,10.21,0,15.31c0.49-0.03,0.99-0.05,1.48-0.08C209.34,510.4,209.34,505.28,209.34,500.16z M305.44,641.59
			c-2.27,4.27-4.54,8.54-6.81,12.81C305.11,652.34,305.47,647.07,305.44,641.59z M178.08,484.43c1.41,10.34,4.62,13.52,8.53,11.27
			C184.11,492.4,181.6,489.08,178.08,484.43z M310.95,484.67c0.8,0.52,1.61,1.05,2.41,1.57c2.21-3.37,4.43-6.74,6.64-10.11
			c-0.86-0.56-1.72-1.12-2.58-1.68C315.26,477.86,313.11,481.27,310.95,484.67z"/>
		<path class="st6" d="M368.23,390.48c0.3,2.46,0.6,4.93,0.91,7.39c-0.54,0.43-1.09,0.86-1.63,1.29c-3.11-2.77-6.52-5.3-9.1-8.5
			c-0.5-0.62,2.2-3.83,3.43-5.85C363.97,386.7,366.1,388.59,368.23,390.48z"/>
		<path class="st6" d="M251.39,592.76c7.35-2.35,16.7,2.45,24.39,9.31c4.31,3.84,7.21,10.33,8.59,16.14
			c2.62,11-1.24,21.33-8.8,29.18c-5.74,5.96-14.14,9.45-22.56,8.87c-20.62-1.43-31.58-15.41-31.35-32.38
			C221.91,605.86,235.43,595.68,251.39,592.76z M258.08,612.55c0.86-4.97,1.39-8.07,1.93-11.17c-0.22-0.05-0.44-0.1-0.65-0.15
			c-1.22,2.79-2.44,5.59-4.09,9.38c-0.75-3.66-1.27-6.17-2.1-10.21c-0.56,4.29-0.9,6.9-1.41,10.78c-1.64-3.6-2.67-5.87-3.71-8.13
			c-0.25,0.07-0.49,0.14-0.74,0.2c0.29,2.53,0.59,5.05,1.02,8.79c-2.41-3.08-3.94-5.04-5.47-6.99c-0.22,0.11-0.44,0.22-0.66,0.33
			c0.95,2.53,1.9,5.07,3.35,8.91c-3.93-3.32-6.66-5.62-9.4-7.93c-0.2,0.19-0.4,0.37-0.6,0.56c2.04,2.72,4.09,5.44,6.9,9.18
			c-3.39-1.24-5.32-1.95-7.25-2.66c-0.13,0.22-0.27,0.45-0.4,0.67c1.83,1.62,3.67,3.24,6.06,5.35c-3.29-0.37-5.56-0.62-7.83-0.87
			c-0.07,0.29-0.15,0.57-0.22,0.86c1.89,0.84,3.78,1.68,7.1,3.15c-5.02,0.74-8.55,1.26-13.42,1.98c5.03,0.53,8.69,0.92,13.85,1.46
			c-3.66,1.7-5.72,2.66-7.78,3.62c0.07,0.27,0.15,0.54,0.22,0.81c2.49-0.31,4.98-0.62,8.27-1.02c-2.58,2.16-4.56,3.81-6.53,5.47
			c0.15,0.26,0.31,0.52,0.46,0.78c2.28-0.87,4.56-1.74,8.29-3.17c-2.91,3.52-4.78,5.77-6.64,8.02c0.21,0.23,0.42,0.46,0.64,0.69
			c2.24-1.68,4.47-3.35,7.44-5.58c-0.65,2.66-1.08,4.41-1.51,6.16c0.45,0.34,0.9,0.68,1.35,1.02c1.15-1.51,2.31-3.02,3.7-4.84
			c-0.36,2.88-0.65,5.19-0.93,7.49c0.27,0.04,0.55,0.07,0.82,0.11c1.07-2.2,2.15-4.41,3.71-7.62c0.46,4.29,0.79,7.33,1.11,10.36
			c0.22-0.01,0.44-0.01,0.66-0.02c0.52-2.96,1.05-5.92,1.78-10.05c1.64,3.75,2.72,6.21,3.8,8.68c0.25-0.08,0.51-0.16,0.76-0.23
			c-0.45-2.96-0.89-5.93-1.55-10.29c2.71,3.46,4.4,5.61,6.08,7.76c0.25-0.18,0.5-0.36,0.75-0.53c-1.05-2.55-2.1-5.11-3.56-8.65
			c3.24,2.45,5.43,4.11,7.63,5.77c0.18-0.25,0.36-0.51,0.55-0.76c-1.82-2.26-3.63-4.51-6.43-7.98c4.19,1.81,6.88,2.98,9.57,4.14
			c0.15-0.24,0.3-0.48,0.45-0.72c-2.27-1.82-4.54-3.64-7.56-6.06c3.6,0.41,6,0.68,10.28,1.17c-3.91-2-6.05-3.09-9.2-4.7
			c3.93-0.49,6.48-0.82,10.36-1.3c-3.96-0.85-6.52-1.4-10.23-2.2c3.18-1.31,5.12-2.12,7.06-2.92c-0.06-0.27-0.12-0.53-0.18-0.8
			c-2.45,0.24-4.9,0.49-8.41,0.84c3.27-2.54,5.72-4.44,8.17-6.34c-0.13-0.23-0.27-0.47-0.4-0.7c-2.85,1.15-5.7,2.3-9.61,3.88
			c2.28-2.97,3.78-4.93,5.28-6.89c-0.2-0.2-0.41-0.4-0.61-0.6c-1.97,1.41-3.94,2.83-6.59,4.73c0.95-2.94,1.63-5.05,2.9-8.99
			C262.11,607.72,260.76,609.34,258.08,612.55z"/>
		<path class="st6" d="M275.05,414.44c-1.54-5.74-4.13-10.07,2.35-13.85c1.97-1.15,1.95-6.05,2.45-9.29
			c0.86-5.64,0.57-11.61,2.32-16.92c1.89-5.73,0.27-10.07-1.58-13.5c-1.71,3.46-3.7,7.51-5.88,11.93c-5.91-3.59-6.67-6.58-3.37-10.5
			c2.89-3.44,2.52-6.89-0.8-9.76c-4.01-3.46-8.57-4.39-13.14-1.18c-3.31,2.32-5.8,5.12-4.05,9.88c0.77,2.09,0.91,6.48,0.45,6.6
			c-2.95,0.81-6.2,1.1-9.24,0.71c-0.92-0.12-2.41-3.12-2.1-4.44c2.12-9.06-1.87-13.45-10.38-12.75c1.97,2.08,4.64,4.77,7.03,7.7
			c0.13,0.16-1.83,2.86-3.14,3.22c-4.15,1.13-8.07,0.67-11.23-4.48c3.78-0.5,6.8-0.9,10.19-1.35c-9.11-3.92-10.46-3.54-14.32,3.99
			c3.16,1.79,6.38,3.61,10.3,5.83c-2.89,3.27-5.13,5.8-7.93,8.97c-3.28-3.84-6.17-7.22-9.36-10.96c-0.72,1.74-1.44,3.48-2.17,5.25
			c-5.51-2.77-8.05-8.39-5.41-12.67c0.88-1.43,3.5-1.8,5.33-2.65c0.68,0.37,1.36,0.75,2.04,1.12c-0.39-3.62-0.77-7.25-1.16-10.87
			c-0.26,0.02-0.52,0.04-0.78,0.06c-0.2-2.41-0.08-4.89-0.66-7.2c-0.89-3.58,0.61-5.37,3.85-4.75c5.01,0.97,9.88,2.67,14.95,4.1
			c0.67-0.62,1.93-1.79,3.19-2.96c0.72,0.97,2.23,2.56,2.04,2.81c-1.19,1.52-2.61,3.56-4.26,3.89c-4.51,0.91-9.16,1.07-14.64,1.61
			c10.22,10.01,16.8-0.01,24.61-3.59c0-0.99,0-3.17,0-5.36c0.42-0.03,0.83-0.06,1.25-0.08c0.25,2.37,0.5,4.74,0.75,7.11
			c0.61,0.16,1.22,0.32,1.83,0.48c0.41-2.54,0.83-5.07,1.24-7.61c0.42,0,0.84-0.01,1.27-0.01c0.24,2.15,0.47,4.3,0.55,4.99
			c8.38,3.46,16.28,6.22,23.68,9.96c4.67,2.37,6.77,8.52,13.27,9.11c1.52,0.14,3.26,4.69,3.77,7.43c0.88,4.66,0.91,9.48,1.22,14.23
			c0.27,4.04,1.25,8-3.76,10.68c-1.73,0.92-3.33,5.93-2.39,7.34c4.94,7.44-1.78,10.45-4.86,14.83
			C277.75,412.35,276.79,412.91,275.05,414.44z"/>
		<path class="st6" d="M200.23,487.94c2.08,17.01,8.07,33.35,7.22,50.84c-0.1,2.09-1.17,4.17-1.97,6.18
			c-5.06,12.62-9.64,25.49-15.62,37.66c-1.64,3.35-7.49,4.68-11.56,6.6c-0.17,0.08-2.57-3.11-2.78-4.91
			c-0.23-1.95,0.9-4.06,1.48-6.26c3.79-2.35,10.46,0.89,12.54-6.4c-2.37-0.59-4.54-1.14-8.14-2.04c0.86-8.97,2.01-18.15,2.56-27.36
			c0.6-10.12,1.19-20.3,0.72-30.41c-0.24-5.19,0.21-9.19,4.08-12.87c3.42-3.26,6.28-7.09,9.39-10.67
			C198.84,488.19,199.54,488.06,200.23,487.94z M201.66,528.86c-0.51-0.1-1.01-0.2-1.52-0.3c-1.73,7.74-3.45,15.49-5.18,23.23
			c0.8,0.16,1.59,0.32,2.39,0.47C198.78,544.46,200.22,536.66,201.66,528.86z"/>
		<path class="st6" d="M235.62,539.15c-1.23-7.06-2.45-14.12-3.68-21.18c-0.84,0.15-1.68,0.29-2.52,0.44
			c-0.97,14.69,3,28.63,7.07,43.45c-2.01,0.61-5.34,0.91-7.76,2.54c-2.39,1.61-3.86,4.58-5.74,6.95c0.49,0.5,0.98,1.01,1.47,1.51
			c2.06-1.21,4.13-2.42,6.99-4.11c2.36,4.36,4.72,8.72,7.08,13.07c-0.61,0.62-1.21,1.23-1.82,1.85c-2.72-1.82-5.43-3.63-7.06-4.72
			c-4.25,2.99-8.26,5.81-12.73,8.96c-0.89-4.96-1.54-8.6-2.36-13.18c0.75-0.45,2.97-1.04,3.75-2.44c1.17-2.11,2.06-4.87,1.76-7.2
			c-0.53-4.2-2.55-8.22-3.03-12.42c-1.52-13.38-2.75-26.79-3.79-40.21c-0.37-4.69-2.7-10.32,2.98-13.5c3.9-2.18,8.63,0.84,13.74,8.2
			c0.81-0.97,1.42-1.97,2.28-2.66c1.09-0.87,2.74-2.35,3.51-2.02c1.34,0.56,3.11,2.29,3.11,3.54c0.01,10.95-0.34,21.9-0.58,32.84
			C237.41,538.97,236.51,539.06,235.62,539.15z"/>
		<path class="st6" d="M268.27,544.13c1.77,11.14,3.53,22.29,5.35,33.8c1.42-1.05,2.73-2,5.42-3.98c-0.38,4.14-0.63,6.88-0.91,9.97
			c-4.47-0.37-8.2-0.68-11.06-0.92c0.66-7.37,1.27-14.27,1.97-22.09c-2.63,0.73-3.69,1.03-5.76,1.6
			c1.91-12.83,3.74-25.13,5.58-37.43c-0.54-0.15-1.09-0.29-1.63-0.44c-1.36,3.17-2.73,6.35-4.85,11.3
			c-4.73-11.04-4.5-20.23-0.46-30.04c1.51,3.29,3.02,6.57,4.54,9.86c0.36-0.02,0.72-0.05,1.09-0.07c0-1.47,0.28-3.01-0.05-4.41
			c-1.56-6.75,1.17-11.13,6.95-14.51c4.51-2.64,7.2-2.49,8.17,3.19c0.29,1.7,0.83,3.36,1.49,5.96c1.13-1.91,1.86-3.14,2.6-4.38
			c2.08,13.49,1.11,26.65-2.87,39.51c-0.85-0.05-1.7-0.1-2.56-0.16c0.7-7.44,1.4-14.89,2.11-22.43c-8.75,7.85-5.75,45.84,6.67,64.23
			c-2.47,0.13-2.75,0.32-9.55-9.64c-2.98-4.36-4.93-9.54-6.66-14.58c-1.63-4.74-2.34-9.78-3.46-14.69
			C269.66,543.91,268.97,544.02,268.27,544.13z"/>
		<path class="st6" d="M240.85,560.03c0.57-14.72,1.07-29.44,1.8-44.15c0.06-1.3,1.66-3.66,2.41-3.6c2.88,0.21,5.75,1.04,8.5,2.01
			c0.73,0.26,1.36,1.76,1.46,2.75c1.77,16.49,3.57,32.98,5.06,49.5c0.39,4.28-0.36,8.64-0.44,12.97c-0.06,3.1,1.4,6.96-3.79,7.25
			c-4.84,0.27-10.69,1.98-12.3-4.91c-1.67-7.14-2.49-14.47-3.69-21.72C240.19,560.1,240.52,560.06,240.85,560.03z"/>
		<path class="st6" d="M169.31,608.99c-1.08-0.36-2.16-0.72-3.18-1.05c-0.22,3.34-0.41,6.21-0.61,9.08
			c-0.74,0.03-1.49,0.05-2.23,0.08c-0.32-1.75-0.83-3.48-0.91-5.24c-0.25-5.35,0.1-10.83,6.07-12.9
			c3.86-1.34,10.51,5.36,12.17,10.98c0.95,3.21,2.05,6.59,4.02,9.19c1.13,1.48,4.09,1.72,6.3,2.2c2.6,0.57,5.51,0.23,7.86,1.27
			c6.92,3.04,11.07,0.86,11.33-6.43c0.31-8.55,4.49-13.8,14.23-16.86c-1.63,2.38-2.76,4.05-3.91,5.71
			c-1.85,2.67-4.68,5.12-5.37,8.06c-1.51,6.44-3.36,11.83-9.85,15.31c-3.05,1.64-0.37,8.91,4.21,11.98
			c4.73,3.17,8.98,6.52,9.3,13.41c-4.39-4.2-7.81-8.79-12.37-11.46c-4.81-2.82-10.7-3.8-17.11-5.91c-5.4,5.92-9.24-0.83-13.43-5.23
			c-4.98,6.93-9.2,12.8-14.18,19.74c0.55-3.06,0.1-6.88,1.68-8.11c3.91-3.05,4.87-5.83,4.37-10.93c-0.59-6.04,1.34-12.32,2.01-18.51
			c0.16-1.44-0.32-2.94-0.51-4.42c1.5,3.8,2.82,7.67,4.53,11.36c2.47,5.32,5.3,6.02,9.18,3.04c-2.69-5.42-5.31-10.77-8-16.08
			c-2-3.94-4.59-6.53-9.56-3.83C166.85,605.52,168.08,607.26,169.31,608.99z"/>
		<path class="st6" d="M148.06,425.18c-2.72-4.85-0.16-6.08,3.41-7.95c2.43-1.27,4.55-4.49,5.26-7.24c0.49-1.86-1.7-4.42-2.69-6.67
			c-0.59,0.31-1.18,0.61-1.77,0.92c0.9,1.72,1.79,3.45,2.69,5.17c-0.51,0.41-1.02,0.82-1.53,1.24c-1.69-2.52-5.32-5.89-4.67-7.39
			c1.44-3.32,5.04-5.7,7.8-8.49c-3.89-0.69-8.33-1.48-12.96-2.31c0.68,8.75-3.62,12.96-9.95,10.36c3.79-6.55,7.55-13.05,11.73-20.29
			c-2.27-4.91-2.7-5-9.74-0.67c4.16-8.6,15.84-14.3,25.99-4c-2.51,1.57-4.9,3.06-8.32,5.19c8.88,0.82,8.87,6.59,9.25,12.36
			C163.36,407.89,162.64,419.54,148.06,425.18z"/>
		<path class="st6" d="M287.58,600.44c8.22-2.63,6.34,5.47,10.45,7.07c3.12-1.61,6.46-3.33,10.45-5.4c1.63,2.49,3.35,5.12,5.27,8.04
			c-5.86,5.54-12.03,10.87-5.9,21.72c0.66-3.81,1.48-6.04,1.35-8.22c-0.38-6.21,3.73-8.83,8.4-10.89c1.11-0.49,3.28-0.22,4.05,0.58
			c0.85,0.87,1.17,2.91,0.82,4.19c-3.34,11.95-6.88,23.86-10.4,35.76c-0.08,0.28-0.69,0.41-1.51,0.87
			c-0.32-0.67-1.02-1.41-0.88-1.92c1.89-6.98,1.18-12.81-6.34-16.14c-1.04-0.46-2.24-1.86-2.33-2.91
			c-0.41-5.05-0.39-10.14-0.69-15.21c-0.1-1.62-0.64-4.56-1.14-4.6C290.93,612.83,292.62,604.31,287.58,600.44z M307.74,613.5
			c0.66-1.11,1.33-2.23,1.99-3.34c-2.05-1.27-4.04-2.69-6.24-3.62c-0.27-0.11-1.64,2.39-2.5,3.68
			C303.24,611.31,305.49,612.41,307.74,613.5z"/>
		<path class="st6" d="M176.12,390.55c0.34,2.51,0.74,5.44,1.31,9.59c-4.75-3.15-8.01-5.32-11.74-7.8c1.67-1.26,2.92-2.21,4.46-3.38
			c-1.26-1.61-2.41-3.08-3.57-4.57c7.81-5.18,8.27-6.76,3.57-13.55c-0.18,2.53,0.05,4.66-0.56,6.51c-0.53,1.6-2.02,2.89-4.32,4.7
			c0.77-7.82-3.86-10.16-9.34-12.45c-4.13-1.72-3.81-5.66,0.41-7.71c4.21-2.04,8.57-3.88,13.04-5.24
			c7.56-2.3,12.92,4.54,11.32,14.01c-0.75,4.39-1.07,8.86-1.91,13.23C178.39,385.94,177.23,387.86,176.12,390.55z"/>
		<path class="st6" d="M201.35,425.86c-6.38-5.66-6.28-7.13-0.05-10.23c-1.4-1.83-2.71-3.55-5.11-6.67c-1.78,4.8-3,8.12-4.99,13.48
			c-4.73-5.75-8.87-10.12-12.09-15.09c-1.02-1.57,0.42-4.74,0.73-7.18c2.2,0.32,4.43,0.5,6.6,0.98c3.76,0.83,7.96,1.07,11.07,3.01
			c2.94,1.83,6.21,5.32,6.63,8.44C204.7,416.58,202.52,420.94,201.35,425.86z"/>
		<path class="st6" d="M173.21,439.56c3.98,0,6.05,0,8.77,0c-1.78-2.54-3.5-4.47-4.53-6.7c-0.47-1.01,0.41-2.64,0.67-3.99
			c1.44,0.43,3.9,0.52,4.16,1.34c1.42,4.38,8.4,7.82,1.24,13.93c-2.72,2.32-1.96,8.89-2.51,13.55c-0.61,5.12-0.92,10.27-1.36,15.41
			c0.72-0.94,1.44-1.89,2.16-2.83c-5.24-2.66-10.49-5.32-15.73-7.98c0.71-0.91,1.42-1.83,2.13-2.74c2.7,0.41,5.4,0.83,9.87,1.51
			c-2.87-3.9-4.78-6.5-7.36-10.02c3.43-0.59,6.01-1.04,9.04-1.57C177.83,446.55,175.92,443.67,173.21,439.56z"/>
		<path class="st6" d="M161.17,464.74c-2.11-3.39-4.22-6.79-6.33-10.18c0.44-0.38,0.89-0.76,1.33-1.13c2.05,1.05,4.11,2.1,7.32,3.75
			c-2.7-5.46-4.8-9.72-6.9-13.98c0.63-0.39,1.26-0.78,1.89-1.17c1.72,1.35,3.44,2.71,6.58,5.18c-1.64-4.58-2.77-7.72-4.25-11.85
			c2.97,1.1,4.98,1.84,7.59,2.8c0.4-5.98-10.01-10.31-2.5-16.71c2.35,4.1,4.45,7.67,6.44,11.31c0.48,0.88,1.04,2.12,0.77,2.93
			c-3.23,9.64-6.61,19.22-9.95,28.82C162.5,464.59,161.84,464.67,161.17,464.74z"/>
		<path class="st6" d="M275.52,378.22c-1.11,6.26,2.78,14.68-8.76,17.72c2.3-4.46,4.07-7.88,5.84-11.31
			c-12.66,9.26-20.45-5.96-30.84-5.59c1.34-0.16,2.68-0.32,3.94-0.47c-1.82-2.32-3.55-4.51-4.91-6.24
			c5.92-0.48,11.64-0.95,16.62-1.36c-0.49,1.34-1.55,4.22-2.93,7.95c4.94,0,8.67,0,12.4,0c0.08,0.34,0.16,0.67,0.24,1.01
			c-2.93,0.93-5.87,1.86-8.65,2.75C261.34,383.98,261.34,383.98,275.52,378.22z"/>
		<path class="st6" d="M234.12,390.79c6.1,3.26,10.8,7.62,15.68,7.83c4.5,0.19,9.2-4.07,13.9-6.41c-0.36,2.85-0.32,6.29-1.39,9.34
			c-0.47,1.36-3.09,2.59-4.85,2.78c-6.03,0.64-12.14,1.28-18.15,0.83c-1.87-0.14-4.14-3.5-5.01-5.85
			C233.45,397,234.12,394.12,234.12,390.79z"/>
		<path class="st6" d="M257.81,336.87c1.21-2.13,2.42-4.26,4.31-7.58c1.27,3.02,1.88,4.48,2.66,6.34c1.16-0.44,2.34-0.78,3.42-1.31
			c8.65-4.25,10.06-3.58,12.22,5.56c0.5,2.1,1.72,4.07,1.99,6.18c0.26,2.01-0.28,4.12-0.6,7.51c-3.28-3.28-5.17-5.57-7.45-7.35
			c-2.31-1.8-5-3.11-8.09-4.97c2-1.85,3.35-3.09,5.17-4.77c-4.53,0.78-8.55,1.47-12.56,2.15
			C258.52,338.05,258.16,337.46,257.81,336.87z"/>
		<path class="st6" d="M323.21,654.56c3.62-7.61,6.58-13.81,9.53-20.01c-0.43-0.19-0.87-0.39-1.3-0.58c-3.2,1.97-6.4,3.95-9.6,5.92
			c-0.44-0.43-0.87-0.87-1.31-1.3c0.82-3.9,1.23-7.95,2.66-11.61c0.52-1.33,3.75-2.75,5.2-2.31c2.84,0.86,6.03,2.46,7.68,4.76
			c1.17,1.63,0.76,5.23-0.21,7.38c-2.57,5.67-5.79,11.05-8.88,16.48C326.69,653.79,325.54,653.8,323.21,654.56z"/>
		<path class="st6" d="M260.66,449.3c-2.55-1.26-5.46-2.11-7.55-3.9c-1.76-1.5-2.59-4.11-3.83-6.22c2.38-0.04,5.06-0.78,7.04,0.08
			c1.97,0.85,3.24,3.31,4.8,5.08c1.42,1.61,2.81,3.25,3.47,4c-0.27,3.42-0.67,5.89-0.58,8.34c0.08,2.17,0.7,4.31,1.31,7.8
			c-6.34-5.4-11.06-9.41-15.78-13.43c0.19-0.55,0.38-1.1,0.57-1.65c3.28,0.55,6.56,1.09,9.84,1.64
			C260.19,450.46,260.43,449.88,260.66,449.3z"/>
		<path class="st6" d="M315.43,410.16c-3.06,3.49-5.22,5.96-7.94,9.06c2.84,0.48,5.24,0.88,8.98,1.5c-2.37,2.51-4.22,4.48-7.11,7.54
			c4.38-0.47,7.66-0.83,12.25-1.33c-3.53,4.37-6.13,7.58-9.83,12.16c-2.31-6.03-4.08-11.19-6.24-16.2
			c-2.69-6.23-0.73-11.22,5.56-13.13C311.82,409.54,312.71,409.88,315.43,410.16z"/>
		<path class="st6" d="M186.84,432.17c-2.39-3.28-4.73-6.48-7.4-10.14c-2.47,2.12-4.48,3.84-5.88,5.04
			c-3.03-5.76-5.94-11.31-8.85-16.85c0.37-0.2,0.96-0.65,1.08-0.55c5.82,4.97,12.84,7.46,19.79,10.35
			C190.23,421.95,190.37,427.37,186.84,432.17z"/>
		<path class="st6" d="M201.51,373.58c-1.95,0.44-3.03,0.68-4.35,0.98c2.11,5.09,4.06,9.82,6.02,14.55
			c-0.48,0.39-0.97,0.78-1.45,1.17c-1.15-1.14-3.16-2.17-3.31-3.43c-0.82-6.88-6.47-8.79-11.17-11.86
			c-1.63-1.06-2.69-2.99-4.01-4.52c1.86-1.19,3.65-3.25,5.59-3.4C193.75,366.67,198.13,368.32,201.51,373.58z"/>
		<path class="st6" d="M245.89,452.44c6.81,6.22,13.31,12.15,19.8,18.08c-0.6,0.68-1.2,1.35-1.81,2.03
			c-6.04-4.65-12.07-9.31-18.47-14.24c-2.2,3.03-4.87,6.72-7.63,10.51C234.78,463.05,237.99,456.67,245.89,452.44z"/>
		<path class="st6" d="M205.75,571.51c2.08-12.16,3.77-22.06,5.47-31.95c0.52-0.02,1.03-0.04,1.55-0.06
			c0.61,8.55,1.72,17.11,1.44,25.63C214.14,567.11,209.32,568.93,205.75,571.51z"/>
		<path class="st6" d="M342.09,401.13c-2.13,2.7-4.26,5.4-6.91,8.75c1.79,1.37,3.47,2.85,5.35,4.03c1.43,0.9,3.63,1.01,4.55,2.2
			c1.41,1.81,2.01,4.25,2.96,6.43c-2.18-0.63-4.51-0.96-6.49-1.98c-1.85-0.96-3.12-3.03-4.97-3.97c-5.36-2.69-5.16-7.54-3.73-11.71
			c0.89-2.59,4.47-4.25,6.84-6.32C340.48,399.42,341.28,400.27,342.09,401.13z"/>
		<path d="M169.31,608.99c-1.23-1.73-2.46-3.47-3.94-5.55c4.96-2.7,7.56-0.1,9.56,3.83c2.7,5.31,5.31,10.66,8,16.08
			c-3.88,2.99-6.71,2.28-9.18-3.04c-1.72-3.69-3.04-7.57-4.53-11.36C169.22,608.96,169.31,608.99,169.31,608.99z"/>
		<path class="st6" d="M223.62,411.32c8.64-1.2,20.64,4.27,22.51,12.06c-3.28-2.09-6.56-4.17-10.12-6.44
			c-0.25,1.3-0.63,3.21-1.14,5.87c-6.66-1.66-8.08-7.44-11.01-11.73L223.62,411.32z"/>
		<path class="st6" d="M322.47,444.26c1.16-1.19,2.23-2.5,3.51-3.54c1.2-0.98,2.62-1.69,4.65-2.95c1.2,6.57-2.13,9.68-6.44,10.01
			c-2.39,0.18-7.46-3.99-7.16-5.15c0.9-3.55,3.77-6.61,6.02-9.77c0.14-0.2,1.96,0.26,2.12,0.72c0.31,0.88,0.32,2.18-0.14,2.95
			c-1.29,2.15-2.87,4.11-4.34,6.15C321.28,443.21,321.88,443.74,322.47,444.26z"/>
		<path class="st6" d="M194.05,425.55c5.31,3.72,4.6,15.89-1.38,27.93c-6.89-3.83-0.67-9.02-1.1-13.44
			C191.12,435.36,193.11,430.46,194.05,425.55z"/>
		<path class="st6" d="M347.52,612.52c0,9.33,0,18.65,0,29.02C342.83,635.15,342.52,620.49,347.52,612.52z"/>
		<path class="st6" d="M223.85,411.08c-1.85,0.91-3.71,1.83-5.72,2.82c-3.11-4.22-6.14-8.33-9.21-12.51
			c3.33-0.28,6.29-0.54,9.25-0.79c2.48,1.5,5.17,3.13,8.2,4.97c-0.8,1.66-1.77,3.7-2.75,5.74
			C223.62,411.32,223.85,411.08,223.85,411.08z"/>
		<path class="st6" d="M194.97,482.54c-4.2-5.15-7.53-9-10.53-13.09c-0.76-1.03-1.01-3.04-0.54-4.23c1.09-2.78,2.76-5.34,4.21-8
			c3.71,2.41,3.88,4.42-0.26,11.12c2.07,0,3.85,0,4.48,0C193.18,472.92,193.9,476.77,194.97,482.54z"/>
		<path class="st6" d="M155.35,612.57c0,8.75,0,17.5,0,26.25c-0.79,0-1.58,0-2.37-0.01c0-8.78,0-17.57,0-26.35
			C153.77,612.5,154.56,612.53,155.35,612.57z"/>
		<path class="st6" d="M292.41,420.11c-5.48-7.15-5.36-16.44,0.75-21.38c-0.65,3.3-1.31,6.61-2.08,10.52
			c1.71-1.07,3.14-1.96,4.57-2.86c0.53,0.28,1.05,0.56,1.58,0.85C295.73,411.25,294.23,415.25,292.41,420.11z"/>
		<path class="st6" d="M316.25,404.95c-0.6-1.46-2.83-4.27-2.17-5.95c0.74-1.9,4.16-2.65,6.25-4.14c2.83-2.02,5.5-4.27,8.12-6.32
			c2.23,4.55,1.69,5.92-3.02,8.96C322.62,399.33,320.18,401.73,316.25,404.95z"/>
		<path class="st6" d="M290.03,570.09c-5.09-4.21-6.12-14.43-2.46-21.05C292.1,554.05,293.3,563.2,290.03,570.09z"/>
		<path class="st6" d="M168.28,490.55c-2.27-4.76-3.78-7.94-5.73-12.02c2.79,0.77,4.79,1.32,7.77,2.14
			c-1.62-3.9-2.87-6.92-4.12-9.93c0.62-0.47,1.24-0.93,1.86-1.4c2.18,2.75,6.31,5.65,6.11,8.22
			C173.86,481.7,170.69,485.62,168.28,490.55z"/>
		<path class="st6" d="M352.48,637.73c0-9.08,0-18.17,0-27.25c0.71,0.01,1.42,0.02,2.13,0.02c0,9.08,0,18.17,0,27.25
			C353.89,637.75,353.19,637.74,352.48,637.73z"/>
		<path class="st6" d="M234.79,444.28c-2.48-9.34,4.43-16.61,13.45-14.72C243.69,434.55,239.66,438.95,234.79,444.28z"/>
		<path class="st6" d="M288.06,635.91c4.22-6.95,0.22-14.11,5.45-20.21C297.66,630.8,297.66,630.8,288.06,635.91z"/>
		<path class="st6" d="M128.85,402.07c-4.16-5.75-0.24-12.68,9.05-15.97C138.11,393.74,132.72,397.3,128.85,402.07z"/>
		<path class="st6" d="M214.77,386.67c-1.03,3.86,7.59,8.1-0.44,11.1c-1.63,0.61-5.33-4.32-8.08-6.7c2.15-2,4.3-4,6.45-6.01
			C213.39,385.59,214.08,386.13,214.77,386.67z"/>
		<path class="st6" d="M295.94,435.68c-0.99-4.36-2.63-8.71-2.63-13.07c0-1.69,3.74-3.38,5.78-5.07c0.45,0.36,0.89,0.71,1.34,1.07
			c-1.28,3.09-2.57,6.18-4.39,10.56c2.99-0.94,4.58-1.44,7.87-2.48c-2.44,4-4.16,6.81-5.87,9.62
			C297.34,436.1,296.64,435.89,295.94,435.68z"/>
		<path class="st6" d="M230.26,397.83c-3.35-2.18-8.09-3.64-9.71-6.73c-2.16-4.13-2.36-9.61,3.29-13.91
			c-1.73,8.28-0.31,14.99,9.51,17.72C232.32,395.88,231.29,396.86,230.26,397.83z"/>
		<path class="st6" d="M252.81,429.26c7.46-0.69,13.66,5.65,12.45,14.54C260.76,438.53,256.87,433.99,252.81,429.26z"/>
		<path class="st6" d="M203.76,370.19c4.45,2.15,7.34,3.54,11.67,5.62c-2.13,2.94-4.53,6.26-6.93,9.58c-0.6-0.2-1.2-0.39-1.81-0.59
			C205.77,380.18,204.84,375.55,203.76,370.19z"/>
		<path class="st6" d="M242.07,390.98c6.51-5.29,11.13-4.28,13.39,2.94C248.85,398.09,246.2,397.51,242.07,390.98z"/>
		<path class="st6" d="M270.29,357.68c-3.61,4.7-7.59,6.79-12,3.85c-0.84-0.56-0.43-4.51,0.63-6.07c1.89-2.77,4.4-5.97,8.7-2.92
			c-2.66,1.49-5.06,2.83-7.46,4.18c0.12,0.32,0.24,0.64,0.36,0.96C263.78,357.68,267.04,357.68,270.29,357.68z"/>
		<path class="st6" d="M195.03,392.66c-4.84-4.7-8.88-8.63-12.92-12.55C191.39,378.86,196.52,384.21,195.03,392.66z"/>
		<path class="st6" d="M234.28,453.66c-1.33-1.53-3.08-3.9,1.68-6.59c1.89-1.07,2.91-3.57,4.74-4.85c1.29-0.91,3.26-0.86,4.92-1.23
			c-0.2,1.5,0.15,3.62-0.71,4.4C241.65,448.32,238.01,450.81,234.28,453.66z"/>
		<path class="st6" d="M312.95,392.62c-4.84,2.66-9.23,5.06-13.93,7.64c-3.26-3.49-0.39-5.73,2.11-7.44
			C304.48,390.52,308.16,387.44,312.95,392.62z"/>
		<path class="st6" d="M319.12,418.73c-1.71-6.65,2.96-13.8,9.9-17.39c0.5,0.33,1,0.66,1.5,1
			C326.97,407.44,323.42,412.54,319.12,418.73z"/>
		<path class="st6" d="M328.69,583.09c-1.38-2.62-2.77-5.25-4.96-9.42c7.95,2.27,14.25,3.17,15.14,11.64
			c-1.87-1.63-3.74-3.26-6.46-5.64c-0.45,1.06-1.03,2.45-1.61,3.83C330.09,583.36,329.39,583.22,328.69,583.09z"/>
		<path class="st6" d="M307.79,380.26c-2.56,8.77-9.58,11.21-14.38,6.45C298.29,384.52,303.04,382.39,307.79,380.26z"/>
		<path class="st6" d="M180.01,527.56c-0.83-7.11-1.66-14.23-2.58-22.11c5.23,3.95,6.37,11.07,4.27,21.82
			C181.14,527.37,180.57,527.47,180.01,527.56z"/>
		<path class="st6" d="M225.7,467.31c-3.22-4.47-2.03-11.07,2.02-12.67c0.81-0.32,2.66-0.08,2.79,0.31c0.5,1.49,1.14,3.47,0.54,4.69
			C229.76,462.25,227.73,464.49,225.7,467.31z"/>
		<path class="st6" d="M175.78,414.82c-4.12-5.84-7.63-10.81-11.33-16.05C171.41,398.94,177.41,407.06,175.78,414.82z"/>
		<path class="st6" d="M183.29,388.42c5.41,3.76,10.67,5.75,10.65,12.42C190.48,397.19,182.21,398.16,183.29,388.42z"/>
		<path class="st6" d="M272.15,409.79c-2.2,5.43-3.81,9.37-6,14.78C261.92,416.54,263.44,412.85,272.15,409.79z"/>
		<path class="st6" d="M308.53,370.74c-1.32,6.11-7.27,9.94-15.05,9.94C296.01,373.27,303.45,374.33,308.53,370.74z"/>
		<path class="st6" d="M338.99,408.89c10.64-1.8,14.61,0.81,12.52,8C347.59,414.38,343.95,412.06,338.99,408.89z"/>
		<path class="st6" d="M215.64,636.66c-2.34-1.48-4.68-2.97-7.01-4.45c1.92-2.23,3.85-4.47,6.7-7.77c0.72,4.89,1.15,7.83,1.58,10.78
			C216.48,635.69,216.06,636.18,215.64,636.66z"/>
		<path class="st6" d="M247.37,503.1c1.93-3.95,3.87-7.89,6.27-12.79c0.89,1.02,2.69,2.34,3.27,4.07c0.34,1.01-1,2.95-2.07,3.98
			c-2.08,2.03-4.5,3.72-6.77,5.55C247.85,503.64,247.61,503.37,247.37,503.1z"/>
		<path class="st6" d="M329.99,379.93c-2.84,3.75-5.68,7.5-8.56,11.32C316.38,387.68,318.66,383.6,329.99,379.93z"/>
		<path class="st6" d="M263.03,418.75c-3.41,1.95-5.21,3.69-7.1,3.8c-1.21,0.07-3.77-2.53-3.57-3.49c0.36-1.77,2.26-4.43,3.61-4.49
			C257.74,414.5,259.61,416.58,263.03,418.75z"/>
		<path class="st6" d="M225.03,439.31c0.36-2.12,0.07-4.74,1.22-6.27c2.04-2.72,4.96-4.78,7.51-7.12c0.6,0.62,1.2,1.23,1.8,1.85
			c-2.74,3.92-5.48,7.83-8.22,11.75C226.57,439.45,225.8,439.38,225.03,439.31z"/>
		<path class="st6" d="M266.03,426.72c3.94,3.14,7.88,6.28,11.82,9.42c-0.59,0.75-1.17,1.5-1.76,2.26
			c-4.11-2.93-8.23-5.86-12.34-8.79C264.51,428.64,265.27,427.68,266.03,426.72z"/>
		<path class="st6" d="M148.13,634.33c0-7.47,0-14.93,0-22.4c0.49,0,0.99,0,1.48,0c0,7.47,0,14.93,0,22.4
			C149.12,634.33,148.62,634.33,148.13,634.33z"/>
		<path class="st6" d="M216.23,481.27c-2.42-12.74-2.42-12.74,1.79-15.85C219.1,479.04,219.1,479.04,216.23,481.27z"/>
		<path class="st6" d="M243.44,663.86c-6.44,0-12.87,0-19.31,0c-0.01-0.38-0.02-0.75-0.03-1.13c6.43,0,12.87,0,19.3,0
			C243.42,663.11,243.43,663.48,243.44,663.86z"/>
		<path class="st6" d="M300.31,473.78c-0.9,7-1.57,12.22-2.25,17.45C292.88,487.91,293.21,482.82,300.31,473.78z"/>
		<path class="st6" d="M301.67,471.2c0.63-5.5,1.17-10.19,1.76-15.34C308.53,461.73,308.11,465.4,301.67,471.2z"/>
		<path class="st6" d="M270.74,457.66c2.75,3.68,5.51,7.36,8.26,11.05c-0.88,0.66-1.77,1.32-2.65,1.98
			c-2.72-3.71-5.44-7.43-8.15-11.14C269.04,458.92,269.89,458.29,270.74,457.66z"/>
		<path class="st6" d="M239.57,487.31c3.16-3.47,6.32-6.95,9.48-10.42c0.65,0.57,1.3,1.13,1.94,1.7c-2.97,3.68-5.94,7.37-8.91,11.05
			C241.25,488.86,240.41,488.09,239.57,487.31z"/>
		<path class="st6" d="M278.1,448.81c-4.3-1.5-7.21-4.22-7.77-8.98c0.59-0.52,1.18-1.04,1.77-1.56c2.64,2.95,5.28,5.9,7.93,8.85
			C279.38,447.67,278.74,448.24,278.1,448.81z"/>
		<path class="st6" d="M230.39,380.01c2.89,0.7,4.92,1.3,6.99,1.66c1.86,0.32,3.77,0.38,5.87,0.58
			C236.91,388.47,233.14,387.97,230.39,380.01z"/>
		<path class="st6" d="M272.71,490.11c-1.77-2.97-3.55-5.93-5.44-9.1c-1.38,0-3.25,0-5.96,0c6.84-4.79,11.29-1.54,12.85,8.15
			C273.68,489.48,273.19,489.8,272.71,490.11z"/>
		<path class="st6" d="M270.06,447.11c2.94,3.25,5.88,6.5,8.83,9.75c-0.52,0.48-1.04,0.97-1.55,1.45c-4.82-1.47-7.4-5.07-8.71-9.86
			C269.1,448,269.58,447.55,270.06,447.11z"/>
		<path class="st6" d="M222.89,477.13c3-3.84,5.11-6.53,7.47-9.55C233.67,473.71,231.75,476.38,222.89,477.13z"/>
		<path class="st6" d="M205.61,581.67c1.18-2.51,2.63-5.57,4.07-8.63c0.52,0.15,1.04,0.3,1.55,0.45c0,4.3,0,8.6,0,13.48
			C208.98,584.85,207.53,583.48,205.61,581.67z"/>
		<path class="st6" d="M236.09,488.12c-2.2,3.22-4.39,6.43-7.25,10.63c-1.41-6.95-0.14-9.06,5.77-11.77
			C235.1,487.36,235.6,487.74,236.09,488.12z"/>
		<path class="st6" d="M300.15,408.82c2.09-2.88,4.17-5.75,6.26-8.63c0.69,0.49,1.39,0.97,2.08,1.46c1.03,4.91-2.82,6.64-6.21,8.67
			C301.57,409.82,300.86,409.32,300.15,408.82z"/>
		<path class="st6" d="M315.93,463.41c1.52-3.64,3.03-7.28,4.55-10.92c0.99,0.43,1.98,0.86,2.96,1.3
			c-1.62,3.59-3.24,7.19-4.86,10.78C317.7,464.19,316.81,463.8,315.93,463.41z"/>
		<path class="st6" d="M181.93,475.93c2.13,3.44,4.25,6.87,6.38,10.31c-0.87,0.56-1.74,1.12-2.61,1.68
			c-2.27-3.34-4.53-6.68-6.8-10.01C179.91,477.25,180.92,476.59,181.93,475.93z"/>
		<path class="st6" d="M246.94,492.15c-1.95,2.98-3.89,5.96-6.64,10.17c-0.82-2.33-2.23-4.49-1.71-5.16
			c1.93-2.49,4.49-4.49,6.82-6.67C245.92,491.04,246.43,491.6,246.94,492.15z"/>
		<path class="st6" d="M309.04,459.06c1.2-3.86,2.4-7.73,3.6-11.59c0.98,0.3,1.97,0.59,2.95,0.89c-1.12,3.84-2.24,7.67-3.36,11.51
			C311.16,459.6,310.1,459.33,309.04,459.06z"/>
		<path class="st6" d="M213.59,428.9c2.88-2.05,5.77-4.11,9.36-6.66C222.7,429.48,220.57,431.12,213.59,428.9z"/>
		<path class="st6" d="M247.28,470.74c-2.78,2.95-5.56,5.89-8.34,8.84c-0.74-0.69-1.49-1.37-2.23-2.06c2.77-2.96,5.53-5.92,8.3-8.88
			C245.76,469.33,246.52,470.03,247.28,470.74z"/>
		<path class="st6" d="M219.84,451.88c-1.87,2.87-3.75,5.74-5.62,8.62c-0.68-0.42-1.36-0.85-2.04-1.27
			C212.19,455.22,213.4,451.94,219.84,451.88z"/>
		<path class="st6" d="M209.34,500.16c0,5.12,0,10.24,0,15.36c-0.49,0.03-0.99,0.05-1.48,0.08c0-5.1,0-10.21,0-15.31
			C208.35,500.25,208.84,500.21,209.34,500.16z"/>
		<path class="st6" d="M305.44,641.59c0.03,5.48-0.33,10.75-6.81,12.81C300.9,650.13,303.17,645.86,305.44,641.59z"/>
		<path class="st6" d="M178.08,484.43c3.52,4.65,6.04,7.97,8.53,11.27C182.7,497.95,179.49,494.76,178.08,484.43z"/>
		<path class="st6" d="M310.95,484.67c2.16-3.4,4.32-6.8,6.47-10.21c0.86,0.56,1.72,1.12,2.58,1.68c-2.21,3.37-4.43,6.74-6.64,10.11
			C312.55,485.72,311.75,485.19,310.95,484.67z"/>
		<path d="M258.08,612.55c2.67-3.22,4.02-4.84,6.63-7.97c-1.27,3.94-1.95,6.05-2.9,8.99c2.65-1.9,4.62-3.32,6.59-4.73
			c0.2,0.2,0.41,0.4,0.61,0.6c-1.5,1.96-3,3.92-5.28,6.89c3.91-1.58,6.76-2.73,9.61-3.88c0.13,0.23,0.27,0.47,0.4,0.7
			c-2.45,1.9-4.89,3.8-8.17,6.34c3.51-0.35,5.96-0.59,8.41-0.84c0.06,0.27,0.12,0.53,0.18,0.8c-1.94,0.8-3.88,1.6-7.06,2.92
			c3.7,0.79,6.27,1.35,10.23,2.2c-3.88,0.49-6.43,0.81-10.36,1.3c3.15,1.61,5.28,2.7,9.2,4.7c-4.28-0.49-6.68-0.76-10.28-1.17
			c3.02,2.42,5.29,4.24,7.56,6.06c-0.15,0.24-0.3,0.48-0.45,0.72c-2.69-1.16-5.38-2.32-9.57-4.14c2.79,3.47,4.61,5.73,6.43,7.98
			c-0.18,0.25-0.36,0.51-0.55,0.76c-2.2-1.66-4.39-3.32-7.63-5.77c1.46,3.55,2.51,6.1,3.56,8.65c-0.25,0.18-0.5,0.36-0.75,0.53
			c-1.68-2.15-3.37-4.3-6.08-7.76c0.66,4.36,1.1,7.32,1.55,10.29c-0.25,0.08-0.51,0.16-0.76,0.23c-1.08-2.46-2.16-4.92-3.8-8.68
			c-0.73,4.13-1.25,7.09-1.78,10.05c-0.22,0.01-0.44,0.01-0.66,0.02c-0.33-3.04-0.65-6.07-1.11-10.36
			c-1.56,3.21-2.64,5.41-3.71,7.62c-0.27-0.04-0.55-0.07-0.82-0.11c0.29-2.31,0.57-4.61,0.93-7.49c-1.39,1.82-2.55,3.33-3.7,4.84
			c-0.45-0.34-0.9-0.68-1.35-1.02c0.43-1.75,0.86-3.5,1.51-6.16c-2.97,2.22-5.2,3.9-7.44,5.58c-0.21-0.23-0.42-0.46-0.64-0.69
			c1.86-2.25,3.72-4.5,6.64-8.02c-3.73,1.43-6.01,2.3-8.29,3.17c-0.15-0.26-0.31-0.52-0.46-0.78c1.97-1.65,3.95-3.31,6.53-5.47
			c-3.29,0.41-5.78,0.71-8.27,1.02c-0.07-0.27-0.15-0.54-0.22-0.81c2.06-0.96,4.12-1.92,7.78-3.62c-5.16-0.54-8.82-0.93-13.85-1.46
			c4.88-0.72,8.4-1.24,13.42-1.98c-3.32-1.47-5.21-2.31-7.1-3.15c0.07-0.29,0.15-0.57,0.22-0.86c2.27,0.25,4.53,0.51,7.83,0.87
			c-2.39-2.11-4.23-3.73-6.06-5.35c0.13-0.22,0.27-0.45,0.4-0.67c1.93,0.71,3.87,1.42,7.25,2.66c-2.81-3.74-4.85-6.46-6.9-9.18
			c0.2-0.19,0.4-0.37,0.6-0.56c2.73,2.31,5.47,4.61,9.4,7.93c-1.45-3.85-2.4-6.38-3.35-8.91c0.22-0.11,0.44-0.22,0.66-0.33
			c1.53,1.96,3.06,3.91,5.47,6.99c-0.43-3.74-0.73-6.27-1.02-8.79c0.25-0.07,0.49-0.14,0.74-0.2c1.03,2.26,2.06,4.53,3.71,8.13
			c0.51-3.88,0.85-6.49,1.41-10.78c0.83,4.04,1.35,6.55,2.1,10.21c1.65-3.79,2.87-6.59,4.09-9.38c0.22,0.05,0.44,0.1,0.65,0.15
			C259.48,604.48,258.94,607.58,258.08,612.55z M251.68,631.23c0.87,0.02,1.74,0.04,2.61,0.07c1.64-2.36,4.56-4.74,4.51-7.07
			c-0.04-1.97-3.46-5.34-5.46-5.41c-1.99-0.06-5.59,3.12-5.74,5.09C247.41,626.23,250.18,628.78,251.68,631.23z"/>
		<path d="M201.66,528.86c-1.44,7.8-2.88,15.6-4.31,23.4c-0.8-0.16-1.59-0.32-2.39-0.47c1.73-7.74,3.45-15.49,5.18-23.23
			C200.64,528.66,201.15,528.76,201.66,528.86z"/>
		<path d="M307.74,613.5c-2.25-1.09-4.5-2.19-6.75-3.28c0.86-1.29,2.24-3.79,2.5-3.68c2.2,0.93,4.19,2.35,6.24,3.62
			C309.07,611.28,308.41,612.39,307.74,613.5z"/>
		<path class="st6" d="M251.68,631.23c-1.49-2.45-4.26-5-4.08-7.32c0.15-1.97,3.75-5.15,5.74-5.09c2.01,0.06,5.42,3.43,5.46,5.41
			c0.05,2.33-2.88,4.71-4.51,7.07C253.42,631.27,252.55,631.25,251.68,631.23z"/>
	</g>
	<g>
		<path class="st8" d="M400.4,547.17v-77.71c0-2.31-0.4-4-1.19-5.06c-0.4-0.59-0.78-0.97-1.14-1.14c-0.36-0.16-1.64-0.61-3.82-1.34
			c-2.64-0.86-3.96-2.61-3.96-5.25c0-1.72,0.64-3.02,1.93-3.92c1.29-0.89,3.12-1.34,5.5-1.34h2.58h44.21h2.58l3.57,0.4
			c1.12,0.33,2.05,0.93,2.78,1.78c0.73,0.86,1.09,1.88,1.09,3.07c0,2.64-1.32,4.4-3.97,5.25c-2.18,0.73-3.45,1.17-3.82,1.34
			c-0.36,0.17-0.74,0.55-1.14,1.14c-0.79,1.06-1.19,2.74-1.19,5.06v83.17c0,5.62,0.15,9.53,0.45,11.75c0.3,2.22,0.91,4.21,1.83,6
			c0.86,1.65,1.82,2.84,2.87,3.57c1.06,0.73,3.07,1.55,6.05,2.48v12.99h-2.18c-8.59,0-15.73-0.76-21.41-2.28
			c-6.68-1.78-12.52-4.43-17.55-7.93c-5.02-3.5-8.59-7.43-10.71-11.8C401.52,562.77,400.4,556.03,400.4,547.17z M464.73,589.4
			v-12.99c6.61-0.86,12.13-3.57,16.55-8.13c5.02-5.22,7.53-12.72,7.53-22.5v-64.63c0-9.05-3.47-15.36-10.41-18.93
			c-2.05-1.06-3.39-1.97-4.02-2.73c-0.63-0.76-0.94-1.87-0.94-3.32c0-1.72,0.63-2.94,1.88-3.67c1.25-0.73,3.3-1.09,6.15-1.09h24.29
			c2.05,0,3.42,0.05,4.11,0.15c0.69,0.1,1.37,0.35,2.03,0.74c1.72,0.99,2.58,2.35,2.58,4.06c0,1.45-0.53,2.68-1.58,3.67
			c-0.33,0.33-1.75,1.22-4.26,2.68c-2.91,1.59-5.19,4.01-6.84,7.29c-1.65,3.27-2.48,6.99-2.48,11.15v64.73
			c0,11.1-2.45,20.22-7.34,27.36c-3.57,5.29-8.69,9.52-15.36,12.69C473.32,587.52,469.36,588.67,464.73,589.4z"/>
		<path class="st8" d="M583.48,451.42v116.47c0,2.58,0.5,4.43,1.49,5.55c0.53,0.66,1.02,1.07,1.49,1.24
			c0.46,0.17,1.98,0.58,4.56,1.24c3.17,0.73,4.76,2.54,4.76,5.45c0,1.72-0.86,3.11-2.58,4.16c-1.26,0.79-3.34,1.19-6.24,1.19h-3.37
			h-44.21h-2.58c-2.38,0-4.21-0.45-5.5-1.34c-1.29-0.89-1.93-2.16-1.93-3.82c0-2.71,1.32-4.49,3.97-5.35
			c2.18-0.73,3.45-1.17,3.81-1.34c0.36-0.16,0.74-0.55,1.14-1.14c0.79-1.06,1.19-2.74,1.19-5.05v-99.22c0-2.31-0.4-4-1.19-5.06
			c-0.4-0.59-0.78-0.97-1.14-1.14c-0.36-0.16-1.63-0.61-3.81-1.34c-2.65-0.86-3.97-2.64-3.97-5.35c0-1.65,0.65-2.92,1.93-3.82
			c1.29-0.89,3.12-1.34,5.5-1.34h2.58H583.48z M591.91,534.88v-10.61c2.84-0.66,4.84-1.35,6-2.08c1.15-0.73,2.16-1.85,3.02-3.37
			c1.39-2.58,2.08-6.05,2.08-10.41v-31.72c0-3.11-0.23-5.42-0.69-6.94c-0.46-1.52-1.39-2.91-2.78-4.16
			c-1.92-1.85-4.49-3.01-7.73-3.47v-10.71c13.61,0,23.66,1.29,30.13,3.87c7.47,2.97,13.38,7.53,17.74,13.68
			c4.43,6.28,6.64,13.98,6.64,23.09c0,10.18-2.25,18.5-6.74,24.98c-4.49,6.41-10.77,11.14-18.83,14.18
			C614.08,533.66,604.46,534.88,591.91,534.88z"/>
		<path class="st8" d="M704.22,448.74v11.4c-4.1,1.12-7.22,2.86-9.37,5.21c-2.15,2.35-3.22,5.24-3.22,8.67
			c0,3.31,0.89,6.2,2.68,8.67c1.78,2.48,4.69,4.84,8.72,7.09c2.78,1.52,9.05,4.43,18.83,8.72c5.95,2.58,10.56,4.91,13.83,6.99
			c3.27,2.08,6.36,4.68,9.27,7.78c7.8,8.2,11.7,17.94,11.7,29.24c0,8.52-2.11,16.32-6.34,23.39c-4.23,7.07-10.04,12.62-17.45,16.65
			c-3.96,2.12-8.31,3.78-13.03,5.01c-4.73,1.22-9.14,1.83-13.23,1.83v-11.3c5.75-1.39,9.9-3.32,12.44-5.8
			c2.54-2.48,3.81-5.83,3.81-10.06c0-4.43-1.98-8.33-5.95-11.7c-2.64-2.18-7.67-4.89-15.07-8.13c-8.13-3.57-13.7-6.11-16.7-7.63
			c-3.01-1.52-5.9-3.3-8.67-5.35c-12.42-8.85-18.63-20.65-18.63-35.39c0-7.53,1.55-14.49,4.66-20.87
			c3.11-6.38,7.43-11.51,12.99-15.41C683.2,452.34,692.78,449.33,704.22,448.74z M699.06,578.1v11.3c-5.42,0-11.4-1.55-17.94-4.66
			c-2.45-1.12-4.13-1.85-5.06-2.18c-0.93-0.33-1.82-0.5-2.68-0.5c-1.32,0-2.31,0.22-2.97,0.64c-0.66,0.43-1.72,1.5-3.17,3.22
			c-1.19,1.45-2.48,2.18-3.87,2.18c-3.7,0-5.55-2.84-5.55-8.52V543.5c0-1.85,0.53-3.42,1.58-4.71c1.06-1.29,2.38-1.96,3.97-2.03
			c1.45-0.06,2.59,0.35,3.42,1.24c0.83,0.89,1.54,2.46,2.13,4.71c1.52,5.68,3.72,11,6.59,15.96c2.88,4.96,6.23,9.15,10.06,12.59
			C689.48,574.83,693.97,577.11,699.06,578.1z M712.05,460.14v-10.9c3.97,0.26,7.4,0.78,10.31,1.54c2.91,0.76,7.04,2.27,12.39,4.51
			c1.32,0.53,2.41,0.79,3.27,0.79c1.25,0,2.18-0.43,2.78-1.29l2.18-2.87c1.06-1.45,2.34-2.18,3.87-2.18c1.78,0,3.09,0.64,3.92,1.93
			c0.82,1.29,1.24,3.32,1.24,6.1v32.71c0,1.92-0.55,3.49-1.64,4.71c-1.09,1.22-2.49,1.83-4.21,1.83c-1.32,0-2.54-0.43-3.67-1.29
			c-0.59-0.53-1.07-1.17-1.44-1.93c-0.36-0.76-0.71-2.03-1.04-3.82c-0.73-3.24-1.98-6.57-3.77-10.01c-1.78-3.44-3.87-6.51-6.24-9.22
			C725.23,465.39,719.25,461.86,712.05,460.14z"/>
		<path class="st8" d="M826.74,448.74v11.99c-3.9,0.59-6.81,2.31-8.72,5.15c-1.92,2.84-2.87,6.91-2.87,12.19v81.88v4.26
			c0,1.52,0.31,3.12,0.94,4.81c0.63,1.68,1.44,3.12,2.43,4.31c1.06,1.32,2.18,2.26,3.37,2.82c1.19,0.56,2.81,0.94,4.86,1.14v12.09
			c-12.82,0-23.95-3.34-33.4-10.01c-8.33-5.88-14.61-13.79-18.83-23.74c-4.23-9.95-6.34-21.72-6.34-35.34
			c0-9.98,1.37-19.28,4.11-27.9c2.74-8.62,6.72-16.11,11.94-22.45c5.29-6.41,11.61-11.56,18.98-15.46
			c7.37-3.9,14.46-5.85,21.26-5.85L826.74,448.74z M834.57,460.83v-11.99c3.24,0.53,5.86,1.09,7.88,1.68
			c2.01,0.59,5.67,1.85,10.95,3.77c3.37,1.19,5.62,1.79,6.74,1.79c1.92,0,3.37-0.86,4.36-2.58l1.29-2.38
			c0.79-1.59,2.28-2.38,4.46-2.38c1.79,0,3.16,0.53,4.11,1.59c0.96,1.06,1.44,2.61,1.44,4.66v41.24c0,2.64-0.59,4.56-1.78,5.75
			c-1.19,1.19-2.54,1.79-4.06,1.79c-1.59,0-2.86-0.51-3.82-1.54c-0.96-1.02-1.74-2.69-2.33-5.01c-1.39-5.22-2.74-9.32-4.06-12.29
			c-2.84-6.28-6.08-11.37-9.71-15.27c-2.44-2.64-4.89-4.67-7.34-6.1C840.25,462.14,837.54,461.23,834.57,460.83z M834.86,589.4
			V577.3c5.15-0.4,10.57-2.34,16.26-5.85c3.04-1.92,5.75-4.48,8.13-7.68c2.38-3.2,4.16-6.72,5.35-10.56
			c0.66-2.11,1.44-3.62,2.33-4.51c0.89-0.89,2.06-1.34,3.52-1.34c1.59,0,2.91,0.59,3.96,1.78s1.59,2.68,1.59,4.46
			c0,2.97-1.14,6.58-3.42,10.81c-2.28,4.23-5.21,8.13-8.77,11.7c-4.36,4.36-8.84,7.6-13.43,9.71
			C845.78,587.94,840.61,589.13,834.86,589.4z"/>
	</g>
</g>
</svg>
